{
 "cells": [
  {
   "cell_type": "markdown",
   "id": "9496f57f",
   "metadata": {},
   "source": [
    "# Dynamic optimization"
   ]
  },
  {
   "cell_type": "markdown",
   "id": "a19c2240",
   "metadata": {},
   "source": [
    "## Intro"
   ]
  },
  {
   "cell_type": "code",
   "execution_count": 1,
   "id": "5845f64e",
   "metadata": {},
   "outputs": [],
   "source": [
    "# TODO: description and flow chart"
   ]
  },
  {
   "cell_type": "markdown",
   "id": "d8b6d588",
   "metadata": {},
   "source": [
    "## Init"
   ]
  },
  {
   "cell_type": "code",
   "execution_count": 2,
   "id": "10b0edb6",
   "metadata": {},
   "outputs": [
    {
     "name": "stdout",
     "output_type": "stream",
     "text": [
      "init done\n"
     ]
    }
   ],
   "source": [
    "# imports\n",
    "import os #to access system folders\n",
    "import subprocess #to access ffmpeg in the system\n",
    "import numpy as np #easy vector operations\n",
    "import math #for operation with infinite\n",
    "from scipy.optimize import curve_fit #fittin of the curve\n",
    "import json #to handle json files\n",
    "import matplotlib.pyplot as pl #to display plots\n",
    "\n",
    "#constants\n",
    "PARAM_AVC = {\"crfs\": 52, \"starting_range\": [17,28], \"lib\": \"libx264\", \"container\": \"mp4\", \"add_param\": \"\"}\n",
    "PARAM_HEVC = {\"crfs\": 52, \"starting_range\": [22,33], \"lib\": \"libx265\", \"container\": \"mp4\", \"add_param\": \"\"}\n",
    "PARAM_VP9 = {\"crfs\": 64, \"starting_range\": [15,35], \"lib\": \"libvpx-vp9\", \"container\": \"webm\", \"add_param\": \"-b:v 0\"}\n",
    "\n",
    "#variables\n",
    "input_type = \"yuv\" #valules:\"yuv\", \"y4m\", \"seq\"\n",
    "codec = \"avc\" #values: \"avc\", \"hevc\", \"vp9\", \"av1\", \"vvc\"\n",
    "\n",
    "raw_width = 1920 #opz. only for yuv and seq\n",
    "raw_height = 1080 #opz. only for yuv and seq\n",
    "raw_fps = 29.97 #opz. only for yuv and seq\n",
    "\n",
    "source_name = \"testscene01\"\n",
    "source_path = \"test_vids/srcRAW_FullHD/\" + source_name + \".\" + input_type\n",
    "ref_path = \"test_vids/tempRAW_refs/\" #raw files for each shot\n",
    "dist_path = \"test_vids/temp_encoded/\" #encoded files for each shot\n",
    "#assessment files path\n",
    "tm_file = \"rd_results/template.json\"\n",
    "rd_file = \"rd_results/\" + source_name + \".json\"\n",
    "vmaf_logs = \"rd_results/vmaf_logs\"\n",
    "\n",
    "current_point = None #the current optimum point\n",
    "new_point = 0 #new value to compare with current_point\n",
    "#TODO: compare with everything stored\n",
    "res_matrix = {\"crf\": None, \"bitrate\": None, \"vmaf\": None, \"psnr\": None} #all computed points, by row: crf, bitrate, vmaf, psnr\n",
    "\n",
    "flag_target = True #values True (quality) or False (bitrate)\n",
    "quality_metric = \"vmaf\" #values \"vmaf\", \"psnr\", \"ssim\", \"mssim\"\n",
    "#TODO implement more quality metrics\n",
    "target_bitrate = [12000000]\n",
    "target_quality = [96]\n",
    "\n",
    "print(\"init done\")"
   ]
  },
  {
   "cell_type": "markdown",
   "id": "c1949a36",
   "metadata": {},
   "source": [
    "## Input and shot change detection"
   ]
  },
  {
   "cell_type": "code",
   "execution_count": 3,
   "id": "657f9549",
   "metadata": {},
   "outputs": [],
   "source": [
    "def init_res_matrix(x):\n",
    "    res_matrix[\"crf\"] = np.arange(0,x,1).tolist()\n",
    "    inf_matrix = np.zeros(x) #infinity to avoid considering zero as a point\n",
    "    inf_matrix[inf_matrix == 0] = math.inf\n",
    "    res_matrix[\"bitrate\"] = inf_matrix.tolist()\n",
    "    res_matrix[\"vmaf\"] = inf_matrix.tolist()\n",
    "    res_matrix[\"psnr\"] = inf_matrix.tolist()"
   ]
  },
  {
   "cell_type": "markdown",
   "id": "d98f7d5e",
   "metadata": {},
   "source": [
    "An empty json structure is generated to be filled and to store computed values"
   ]
  },
  {
   "cell_type": "code",
   "execution_count": 4,
   "id": "25b023a2",
   "metadata": {},
   "outputs": [
    {
     "name": "stdout",
     "output_type": "stream",
     "text": [
      "yuv input\n"
     ]
    }
   ],
   "source": [
    "struct_points = [] #structure of target points for json file\n",
    "struct_shots = [] #structure of shots for json file\n",
    "num_scenes = 3 #TODO: shot change detection\n",
    "\n",
    "#TODO: support different input raw files\n",
    "if input_type == \"yuv\":\n",
    "    print(\"yuv input\")\n",
    "elif input_type == \"y4m\":\n",
    "    print(\"y4m input\")\n",
    "else:\n",
    "    print(\"No such an input type\")\n",
    "    exit()\n",
    "    \n",
    "#TODO: create folers inside tempENCODED with indexes\n",
    "    \n",
    "#init values based on the selected output codec\n",
    "if codec == \"avc\":\n",
    "    s_cod = PARAM_AVC\n",
    "    init_res_matrix(PARAM_AVC[\"crfs\"])\n",
    "elif codec == \"hevc\":\n",
    "    s_cod = PARAM_HEVC\n",
    "    init_res_matrix(PARAM_HEVC[\"crfs\"])\n",
    "elif codec == \"vp9\":\n",
    "    s_cod = PARAM_VP9\n",
    "    init_res_matrix(PARAM_VP9[\"crfs\"])\n",
    "else:\n",
    "    print(\"No such an codec\")\n",
    "    exit()\n",
    "\n",
    "min_range_crf = s_cod[\"starting_range\"][0]\n",
    "max_range_crf = s_cod[\"starting_range\"][1]\n",
    "    \n",
    "#if not os.path.isfile(rd_file):\n",
    "    #TODO: duplicate file and rename\n",
    "with open(tm_file, 'r') as f:\n",
    "    o_data = json.load(f)\n",
    "    \n",
    "    #add source name and results matrix\n",
    "    o_data[\"content\"] = source_name\n",
    "    o_data[\"versions\"][0][\"codec\"] = codec\n",
    "    o_data[\"versions\"][0][\"width\"] = raw_width\n",
    "    o_data[\"versions\"][0][\"height\"] = raw_height\n",
    "    o_data[\"versions\"][0][\"fps\"] = raw_fps\n",
    "    o_data[\"versions\"][0][\"shots\"][0][\"assessment\"] = res_matrix\n",
    "    \n",
    "    #add emplty target points\n",
    "    base_point = o_data[\"versions\"][0][\"shots\"][0][\"opt_points\"][0]\n",
    "    y = lambda x: target_quality if x else target_bitrate\n",
    "    for i in range(0, len(y(flag_target))):\n",
    "        base_point[\"target\"] = y(flag_target)[i]\n",
    "        struct_points.append(base_point.copy())\n",
    "    o_data[\"versions\"][0][\"shots\"][0][\"opt_points\"] = struct_points\n",
    "    \n",
    "    #add empty shots\n",
    "    base_shot = o_data[\"versions\"][0][\"shots\"][0]\n",
    "    for i in range(0, num_scenes):\n",
    "        base_shot[\"index\"] = i #assign index to shots in json file\n",
    "        struct_shots.append(base_shot.copy())\n",
    "    o_data[\"versions\"][0][\"shots\"] = struct_shots\n",
    "\n",
    "with open(rd_file, 'w') as w:\n",
    "    json.dump(o_data, w, separators=(',',': '))"
   ]
  },
  {
   "cell_type": "markdown",
   "id": "9cd13ccc",
   "metadata": {},
   "source": [
    "## Optimization\n",
    "Find the shot encoded to a certain crf that has the closest quality or rate to the target"
   ]
  },
  {
   "cell_type": "code",
   "execution_count": 5,
   "id": "b61193ec",
   "metadata": {},
   "outputs": [],
   "source": [
    "#store the quality and rate results for each shot at each encoded crf\n",
    "def save_results(index, crf, bitrate, vmaf, psnr):\n",
    "    with open(rd_file, 'r') as f:\n",
    "        o_data = json.load(f)\n",
    "        o_data[\"versions\"][0][\"shots\"][index][\"assessment\"][\"crf\"][crf] = crf\n",
    "        o_data[\"versions\"][0][\"shots\"][index][\"assessment\"][\"bitrate\"][crf] = bitrate\n",
    "        o_data[\"versions\"][0][\"shots\"][index][\"assessment\"][\"vmaf\"][crf] = vmaf\n",
    "        o_data[\"versions\"][0][\"shots\"][index][\"assessment\"][\"psnr\"][crf] = psnr\n",
    "    with open(rd_file, 'w') as w:\n",
    "        json.dump(o_data, w, separators=(',',': '))\n",
    "    print(\"values for -shot\" + str(index) + \" -crf\" + str(crf) + \" saved\")\n",
    "    print(\"-rate\" + str(bitrate) + \" -vmaf\" + str(vmaf))\n",
    "    return o_data[\"versions\"][0][\"shots\"][index][\"assessment\"]\n",
    "\n",
    "#linear interpolation of the target and the weight alpha between sx and dx\n",
    "def interpolate(mat, sx, dx):\n",
    "    alpha = (mat[target_name][sx] - target) / (mat[target_name][sx] - mat[target_name][dx])\n",
    "    new_point = round(mat[\"crf\"][sx] - alpha * (mat[\"crf\"][sx] - mat[\"crf\"][dx]))\n",
    "    print(\"new -crf\" + str(new_point))\n",
    "    return new_point"
   ]
  },
  {
   "cell_type": "code",
   "execution_count": 6,
   "id": "b6515097",
   "metadata": {},
   "outputs": [
    {
     "name": "stdout",
     "output_type": "stream",
     "text": [
      "init computing -scene0\n"
     ]
    },
    {
     "name": "stderr",
     "output_type": "stream",
     "text": [
      "ffmpeg version N-106635-g83e1a1de88 Copyright (c) 2000-2022 the FFmpeg developers\n",
      "  built with gcc 9 (Ubuntu 9.4.0-1ubuntu1~20.04.1)\n",
      "  configuration: --prefix=/home/ubuntu/ffmpeg_build --pkg-config-flags=--static --extra-cflags=-I/home/ubuntu/ffmpeg_build/include --extra-ldflags=-L/home/ubuntu/ffmpeg_build/lib --extra-libs='-lpthread -lm' --ld=g++ --bindir=/home/ubuntu/bin --enable-gpl --enable-gnutls --enable-libaom --enable-libass --enable-libfdk-aac --enable-libfreetype --enable-libmp3lame --enable-libopus --enable-libsvtav1 --enable-libdav1d --enable-libvorbis --enable-libvpx --enable-libx264 --enable-libx265 --enable-libvmaf --enable-version3 --enable-nonfree\n",
      "  libavutil      57. 24.101 / 57. 24.101\n",
      "  libavcodec     59. 26.100 / 59. 26.100\n",
      "  libavformat    59. 22.100 / 59. 22.100\n",
      "  libavdevice    59.  6.100 / 59.  6.100\n",
      "  libavfilter     8. 33.100 /  8. 33.100\n",
      "  libswscale      6.  6.100 /  6.  6.100\n",
      "  libswresample   4.  6.100 /  4.  6.100\n",
      "  libpostproc    56.  5.100 / 56.  5.100\n",
      "[rawvideo @ 0x56269f6dc4c0] Estimating duration from bitrate, this may be inaccurate\n",
      "Input #0, rawvideo, from 'test_vids/tempRAW_refs/scene0000001.yuv':\n",
      "  Duration: 00:00:02.00, start: 0.000000, bitrate: 745749 kb/s\n",
      "  Stream #0:0: Video: rawvideo (I420 / 0x30323449), yuv420p, 1920x1080, 745749 kb/s, 29.97 tbr, 29.97 tbn\n",
      "Stream mapping:\n",
      "  Stream #0:0 -> #0:0 (rawvideo (native) -> h264 (libx264))\n",
      "Press [q] to stop, [?] for help\n",
      "[libx264 @ 0x56269f6e9180] using cpu capabilities: MMX2 SSE2Fast SSSE3 SSE4.2 AVX FMA3 BMI2 AVX2\n",
      "[libx264 @ 0x56269f6e9180] profile High, level 4.0\n",
      "[libx264 @ 0x56269f6e9180] 264 - core 155 r2917 0a84d98 - H.264/MPEG-4 AVC codec - Copyleft 2003-2018 - http://www.videolan.org/x264.html - options: cabac=1 ref=3 deblock=1:0:0 analyse=0x3:0x113 me=hex subme=7 psy=1 psy_rd=1.00:0.00 mixed_ref=1 me_range=16 chroma_me=1 trellis=1 8x8dct=1 cqm=0 deadzone=21,11 fast_pskip=1 chroma_qp_offset=-2 threads=12 lookahead_threads=2 sliced_threads=0 nr=0 decimate=1 interlaced=0 bluray_compat=0 constrained_intra=0 bframes=3 b_pyramid=2 b_adapt=1 b_bias=0 direct=1 weightb=1 open_gop=0 weightp=2 keyint=250 keyint_min=25 scenecut=40 intra_refresh=0 rc_lookahead=40 rc=crf mbtree=1 crf=28.0 qcomp=0.60 qpmin=0 qpmax=69 qpstep=4 ip_ratio=1.40 aq=1:1.00\n",
      "Output #0, mp4, to 'test_vids/temp_encoded/0/28_AVC.mp4':\n",
      "  Metadata:\n",
      "    encoder         : Lavf59.22.100\n",
      "  Stream #0:0: Video: h264 (avc1 / 0x31637661), yuv420p(progressive), 1920x1080, q=2-31, 29.97 fps, 11988 tbn\n",
      "    Metadata:\n",
      "      encoder         : Lavc59.26.100 libx264\n",
      "    Side data:\n",
      "      cpb: bitrate max/min/avg: 0/0/0 buffer size: 0 vbv_delay: N/A\n",
      "frame=   60 fps= 40 q=-1.0 Lsize=    1413kB time=00:00:01.90 bitrate=6084.7kbits/s speed=1.27x     \n",
      "video:1411kB audio:0kB subtitle:0kB other streams:0kB global headers:0kB muxing overhead: 0.109893%\n",
      "[libx264 @ 0x56269f6e9180] frame I:1     Avg QP:31.03  size:137369\n",
      "[libx264 @ 0x56269f6e9180] frame P:15    Avg QP:31.67  size: 51663\n",
      "[libx264 @ 0x56269f6e9180] frame B:44    Avg QP:35.02  size: 12092\n",
      "[libx264 @ 0x56269f6e9180] consecutive B-frames:  1.7%  0.0%  5.0% 93.3%\n",
      "[libx264 @ 0x56269f6e9180] mb I  I16..4:  4.6% 80.8% 14.6%\n",
      "[libx264 @ 0x56269f6e9180] mb P  I16..4:  0.5% 11.5%  1.0%  P16..4: 31.7% 18.4% 11.4%  0.0%  0.0%    skip:25.5%\n",
      "[libx264 @ 0x56269f6e9180] mb B  I16..4:  0.0%  0.8%  0.0%  B16..8: 29.5%  7.2%  1.4%  direct: 2.4%  skip:58.7%  L0:35.9% L1:53.5% BI:10.6%\n",
      "[libx264 @ 0x56269f6e9180] 8x8 transform intra:86.7% inter:71.9%\n",
      "[libx264 @ 0x56269f6e9180] coded y,uvDC,uvAC intra: 74.5% 69.2% 29.7% inter: 14.3% 8.7% 0.2%\n",
      "[libx264 @ 0x56269f6e9180] i16 v,h,dc,p: 23% 33% 10% 34%\n",
      "[libx264 @ 0x56269f6e9180] i8 v,h,dc,ddl,ddr,vr,hd,vl,hu: 15% 15% 19%  6%  9%  9%  9%  7%  9%\n",
      "[libx264 @ 0x56269f6e9180] i4 v,h,dc,ddl,ddr,vr,hd,vl,hu: 20% 20% 16%  6%  9%  8%  8%  6%  7%\n",
      "[libx264 @ 0x56269f6e9180] i8c dc,h,v,p: 66% 13% 16%  4%\n",
      "[libx264 @ 0x56269f6e9180] Weighted P-Frames: Y:0.0% UV:0.0%\n",
      "[libx264 @ 0x56269f6e9180] ref P L0: 60.0% 17.7% 15.4%  6.9%\n",
      "[libx264 @ 0x56269f6e9180] ref B L0: 93.7%  4.7%  1.7%\n",
      "[libx264 @ 0x56269f6e9180] ref B L1: 97.6%  2.4%\n",
      "[libx264 @ 0x56269f6e9180] kb/s:5771.64\n",
      "ffmpeg version N-106635-g83e1a1de88 Copyright (c) 2000-2022 the FFmpeg developers\n",
      "  built with gcc 9 (Ubuntu 9.4.0-1ubuntu1~20.04.1)\n",
      "  configuration: --prefix=/home/ubuntu/ffmpeg_build --pkg-config-flags=--static --extra-cflags=-I/home/ubuntu/ffmpeg_build/include --extra-ldflags=-L/home/ubuntu/ffmpeg_build/lib --extra-libs='-lpthread -lm' --ld=g++ --bindir=/home/ubuntu/bin --enable-gpl --enable-gnutls --enable-libaom --enable-libass --enable-libfdk-aac --enable-libfreetype --enable-libmp3lame --enable-libopus --enable-libsvtav1 --enable-libdav1d --enable-libvorbis --enable-libvpx --enable-libx264 --enable-libx265 --enable-libvmaf --enable-version3 --enable-nonfree\n",
      "  libavutil      57. 24.101 / 57. 24.101\n",
      "  libavcodec     59. 26.100 / 59. 26.100\n",
      "  libavformat    59. 22.100 / 59. 22.100\n",
      "  libavdevice    59.  6.100 / 59.  6.100\n",
      "  libavfilter     8. 33.100 /  8. 33.100\n",
      "  libswscale      6.  6.100 /  6.  6.100\n",
      "  libswresample   4.  6.100 /  4.  6.100\n",
      "  libpostproc    56.  5.100 / 56.  5.100\n",
      "[rawvideo @ 0x55a8202fe5c0] Estimating duration from bitrate, this may be inaccurate\n",
      "Input #0, rawvideo, from 'test_vids/tempRAW_refs/scene0000001.yuv':\n",
      "  Duration: 00:00:02.00, start: 0.000000, bitrate: 745749 kb/s\n",
      "  Stream #0:0: Video: rawvideo (I420 / 0x30323449), yuv420p, 1920x1080, 745749 kb/s, 29.97 tbr, 29.97 tbn\n",
      "Input #1, mov,mp4,m4a,3gp,3g2,mj2, from 'test_vids/temp_encoded/0/28_AVC.mp4':\n",
      "  Metadata:\n",
      "    major_brand     : isom\n",
      "    minor_version   : 512\n",
      "    compatible_brands: isomiso2avc1mp41\n",
      "    encoder         : Lavf59.22.100\n",
      "  Duration: 00:00:02.00, start: 0.000000, bitrate: 5777 kb/s\n",
      "  Stream #1:0[0x1](und): Video: h264 (High) (avc1 / 0x31637661), yuv420p(progressive), 1920x1080, 5774 kb/s, 29.97 fps, 29.97 tbr, 11988 tbn (default)\n",
      "    Metadata:\n",
      "      handler_name    : VideoHandler\n",
      "      vendor_id       : [0][0][0][0]\n",
      "Stream mapping:\n",
      "  Stream #0:0 (rawvideo) -> setpts:default\n",
      "  Stream #1:0 (h264) -> scale:default\n",
      "  libvmaf:default -> Stream #0:0 (wrapped_avframe)\n",
      "Press [q] to stop, [?] for help\n",
      "Output #0, null, to 'pipe:':\n",
      "  Metadata:\n",
      "    encoder         : Lavf59.22.100\n",
      "  Stream #0:0: Video: wrapped_avframe, yuv420p(progressive), 1920x1080, q=2-31, 200 kb/s, 29.97 fps, 29.97 tbn\n",
      "    Metadata:\n",
      "      encoder         : Lavc59.26.100 wrapped_avframe\n",
      "frame=   60 fps=9.3 q=-0.0 Lsize=N/A time=00:00:02.00 bitrate=N/A speed=0.309x    \n",
      "video:28kB audio:0kB subtitle:0kB other streams:0kB global headers:0kB muxing overhead: unknown\n",
      "[Parsed_libvmaf_3 @ 0x55a8211cc200] VMAF score: 84.699862\n",
      "ffmpeg version N-106635-g83e1a1de88 Copyright (c) 2000-2022 the FFmpeg developers\n",
      "  built with gcc 9 (Ubuntu 9.4.0-1ubuntu1~20.04.1)\n",
      "  configuration: --prefix=/home/ubuntu/ffmpeg_build --pkg-config-flags=--static --extra-cflags=-I/home/ubuntu/ffmpeg_build/include --extra-ldflags=-L/home/ubuntu/ffmpeg_build/lib --extra-libs='-lpthread -lm' --ld=g++ --bindir=/home/ubuntu/bin --enable-gpl --enable-gnutls --enable-libaom --enable-libass --enable-libfdk-aac --enable-libfreetype --enable-libmp3lame --enable-libopus --enable-libsvtav1 --enable-libdav1d --enable-libvorbis --enable-libvpx --enable-libx264 --enable-libx265 --enable-libvmaf --enable-version3 --enable-nonfree\n",
      "  libavutil      57. 24.101 / 57. 24.101\n",
      "  libavcodec     59. 26.100 / 59. 26.100\n",
      "  libavformat    59. 22.100 / 59. 22.100\n",
      "  libavdevice    59.  6.100 / 59.  6.100\n",
      "  libavfilter     8. 33.100 /  8. 33.100\n",
      "  libswscale      6.  6.100 /  6.  6.100\n",
      "  libswresample   4.  6.100 /  4.  6.100\n",
      "  libpostproc    56.  5.100 / 56.  5.100\n",
      "[rawvideo @ 0x55d2b15274c0] Estimating duration from bitrate, this may be inaccurate\n",
      "Input #0, rawvideo, from 'test_vids/tempRAW_refs/scene0000001.yuv':\n",
      "  Duration: 00:00:02.00, start: 0.000000, bitrate: 745749 kb/s\n",
      "  Stream #0:0: Video: rawvideo (I420 / 0x30323449), yuv420p, 1920x1080, 745749 kb/s, 29.97 tbr, 29.97 tbn\n",
      "Stream mapping:\n",
      "  Stream #0:0 -> #0:0 (rawvideo (native) -> h264 (libx264))\n",
      "Press [q] to stop, [?] for help\n",
      "[libx264 @ 0x55d2b1534180] using cpu capabilities: MMX2 SSE2Fast SSSE3 SSE4.2 AVX FMA3 BMI2 AVX2\n",
      "[libx264 @ 0x55d2b1534180] profile High, level 4.0\n",
      "[libx264 @ 0x55d2b1534180] 264 - core 155 r2917 0a84d98 - H.264/MPEG-4 AVC codec - Copyleft 2003-2018 - http://www.videolan.org/x264.html - options: cabac=1 ref=3 deblock=1:0:0 analyse=0x3:0x113 me=hex subme=7 psy=1 psy_rd=1.00:0.00 mixed_ref=1 me_range=16 chroma_me=1 trellis=1 8x8dct=1 cqm=0 deadzone=21,11 fast_pskip=1 chroma_qp_offset=-2 threads=12 lookahead_threads=2 sliced_threads=0 nr=0 decimate=1 interlaced=0 bluray_compat=0 constrained_intra=0 bframes=3 b_pyramid=2 b_adapt=1 b_bias=0 direct=1 weightb=1 open_gop=0 weightp=2 keyint=250 keyint_min=25 scenecut=40 intra_refresh=0 rc_lookahead=40 rc=crf mbtree=1 crf=17.0 qcomp=0.60 qpmin=0 qpmax=69 qpstep=4 ip_ratio=1.40 aq=1:1.00\n",
      "Output #0, mp4, to 'test_vids/temp_encoded/0/17_AVC.mp4':\n",
      "  Metadata:\n",
      "    encoder         : Lavf59.22.100\n",
      "  Stream #0:0: Video: h264 (avc1 / 0x31637661), yuv420p(progressive), 1920x1080, q=2-31, 29.97 fps, 11988 tbn\n",
      "    Metadata:\n",
      "      encoder         : Lavc59.26.100 libx264\n",
      "    Side data:\n",
      "      cpb: bitrate max/min/avg: 0/0/0 buffer size: 0 vbv_delay: N/A\n",
      "frame=    1 fps=0.0 q=0.0 size=       0kB time=00:00:00.00 bitrate=N/A speed=N/A    \r"
     ]
    },
    {
     "name": "stdout",
     "output_type": "stream",
     "text": [
      "values for -shot0 -crf28 saved\n",
      "-rate5777861 -vmaf84.699862\n"
     ]
    },
    {
     "name": "stderr",
     "output_type": "stream",
     "text": [
      "frame=   60 fps= 22 q=-1.0 Lsize=    9357kB time=00:00:01.90 bitrate=40302.9kbits/s speed=0.699x    x    \n",
      "video:9356kB audio:0kB subtitle:0kB other streams:0kB global headers:0kB muxing overhead: 0.017661%\n",
      "[libx264 @ 0x55d2b1534180] frame I:1     Avg QP:20.03  size:340136\n",
      "[libx264 @ 0x55d2b1534180] frame P:15    Avg QP:20.60  size:272704\n",
      "[libx264 @ 0x55d2b1534180] frame B:44    Avg QP:23.23  size:117019\n",
      "[libx264 @ 0x55d2b1534180] consecutive B-frames:  1.7%  0.0%  5.0% 93.3%\n",
      "[libx264 @ 0x55d2b1534180] mb I  I16..4:  0.1% 99.4%  0.5%\n",
      "[libx264 @ 0x55d2b1534180] mb P  I16..4:  0.0% 40.1%  1.4%  P16..4: 14.0% 22.8% 21.7%  0.0%  0.0%    skip: 0.0%\n",
      "[libx264 @ 0x55d2b1534180] mb B  I16..4:  0.0%  7.6%  0.3%  B16..8: 24.9% 18.7%  8.6%  direct:23.8%  skip:16.2%  L0:27.6% L1:21.9% BI:50.5%\n",
      "[libx264 @ 0x55d2b1534180] 8x8 transform intra:96.7% inter:79.7%\n",
      "[libx264 @ 0x55d2b1534180] coded y,uvDC,uvAC intra: 98.4% 94.1% 64.3% inter: 70.4% 60.8% 12.0%\n",
      "[libx264 @ 0x55d2b1534180] i16 v,h,dc,p:  7% 28% 10% 55%\n",
      "[libx264 @ 0x55d2b1534180] i8 v,h,dc,ddl,ddr,vr,hd,vl,hu: 16% 18% 20%  5%  8%  8%  9%  7% 10%\n",
      "[libx264 @ 0x55d2b1534180] i4 v,h,dc,ddl,ddr,vr,hd,vl,hu: 16% 16% 11%  7% 10% 10% 10%  9% 11%\n",
      "[libx264 @ 0x55d2b1534180] i8c dc,h,v,p: 51% 19% 23%  7%\n",
      "[libx264 @ 0x55d2b1534180] Weighted P-Frames: Y:0.0% UV:0.0%\n",
      "[libx264 @ 0x55d2b1534180] ref P L0: 42.8% 17.9% 27.3% 12.0%\n",
      "[libx264 @ 0x55d2b1534180] ref B L0: 83.2% 13.1%  3.7%\n",
      "[libx264 @ 0x55d2b1534180] ref B L1: 95.3%  4.7%\n",
      "[libx264 @ 0x55d2b1534180] kb/s:38279.88\n",
      "ffmpeg version N-106635-g83e1a1de88 Copyright (c) 2000-2022 the FFmpeg developers\n",
      "  built with gcc 9 (Ubuntu 9.4.0-1ubuntu1~20.04.1)\n",
      "  configuration: --prefix=/home/ubuntu/ffmpeg_build --pkg-config-flags=--static --extra-cflags=-I/home/ubuntu/ffmpeg_build/include --extra-ldflags=-L/home/ubuntu/ffmpeg_build/lib --extra-libs='-lpthread -lm' --ld=g++ --bindir=/home/ubuntu/bin --enable-gpl --enable-gnutls --enable-libaom --enable-libass --enable-libfdk-aac --enable-libfreetype --enable-libmp3lame --enable-libopus --enable-libsvtav1 --enable-libdav1d --enable-libvorbis --enable-libvpx --enable-libx264 --enable-libx265 --enable-libvmaf --enable-version3 --enable-nonfree\n",
      "  libavutil      57. 24.101 / 57. 24.101\n",
      "  libavcodec     59. 26.100 / 59. 26.100\n",
      "  libavformat    59. 22.100 / 59. 22.100\n",
      "  libavdevice    59.  6.100 / 59.  6.100\n",
      "  libavfilter     8. 33.100 /  8. 33.100\n",
      "  libswscale      6.  6.100 /  6.  6.100\n",
      "  libswresample   4.  6.100 /  4.  6.100\n",
      "  libpostproc    56.  5.100 / 56.  5.100\n",
      "[rawvideo @ 0x55adc91695c0] Estimating duration from bitrate, this may be inaccurate\n",
      "Input #0, rawvideo, from 'test_vids/tempRAW_refs/scene0000001.yuv':\n",
      "  Duration: 00:00:02.00, start: 0.000000, bitrate: 745749 kb/s\n",
      "  Stream #0:0: Video: rawvideo (I420 / 0x30323449), yuv420p, 1920x1080, 745749 kb/s, 29.97 tbr, 29.97 tbn\n",
      "Input #1, mov,mp4,m4a,3gp,3g2,mj2, from 'test_vids/temp_encoded/0/17_AVC.mp4':\n",
      "  Metadata:\n",
      "    major_brand     : isom\n",
      "    minor_version   : 512\n",
      "    compatible_brands: isomiso2avc1mp41\n",
      "    encoder         : Lavf59.22.100\n",
      "  Duration: 00:00:02.00, start: 0.000000, bitrate: 38270 kb/s\n",
      "  Stream #1:0[0x1](und): Video: h264 (High) (avc1 / 0x31637661), yuv420p(progressive), 1920x1080, 38282 kb/s, 29.97 fps, 29.97 tbr, 11988 tbn (default)\n",
      "    Metadata:\n",
      "      handler_name    : VideoHandler\n",
      "      vendor_id       : [0][0][0][0]\n",
      "Stream mapping:\n",
      "  Stream #0:0 (rawvideo) -> setpts:default\n",
      "  Stream #1:0 (h264) -> scale:default\n",
      "  libvmaf:default -> Stream #0:0 (wrapped_avframe)\n",
      "Press [q] to stop, [?] for help\n",
      "Output #0, null, to 'pipe:':\n",
      "  Metadata:\n",
      "    encoder         : Lavf59.22.100\n",
      "  Stream #0:0: Video: wrapped_avframe, yuv420p(progressive), 1920x1080, q=2-31, 200 kb/s, 29.97 fps, 29.97 tbn\n",
      "    Metadata:\n",
      "      encoder         : Lavc59.26.100 wrapped_avframe\n",
      "frame=   60 fps=9.5 q=-0.0 Lsize=N/A time=00:00:02.00 bitrate=N/A speed=0.319x    \n",
      "video:28kB audio:0kB subtitle:0kB other streams:0kB global headers:0kB muxing overhead: unknown\n",
      "[Parsed_libvmaf_3 @ 0x55adca036e80] VMAF score: 98.361118\n",
      "ffmpeg version N-106635-g83e1a1de88 Copyright (c) 2000-2022 the FFmpeg developers\n",
      "  built with gcc 9 (Ubuntu 9.4.0-1ubuntu1~20.04.1)\n",
      "  configuration: --prefix=/home/ubuntu/ffmpeg_build --pkg-config-flags=--static --extra-cflags=-I/home/ubuntu/ffmpeg_build/include --extra-ldflags=-L/home/ubuntu/ffmpeg_build/lib --extra-libs='-lpthread -lm' --ld=g++ --bindir=/home/ubuntu/bin --enable-gpl --enable-gnutls --enable-libaom --enable-libass --enable-libfdk-aac --enable-libfreetype --enable-libmp3lame --enable-libopus --enable-libsvtav1 --enable-libdav1d --enable-libvorbis --enable-libvpx --enable-libx264 --enable-libx265 --enable-libvmaf --enable-version3 --enable-nonfree\n",
      "  libavutil      57. 24.101 / 57. 24.101\n",
      "  libavcodec     59. 26.100 / 59. 26.100\n",
      "  libavformat    59. 22.100 / 59. 22.100\n",
      "  libavdevice    59.  6.100 / 59.  6.100\n",
      "  libavfilter     8. 33.100 /  8. 33.100\n",
      "  libswscale      6.  6.100 /  6.  6.100\n",
      "  libswresample   4.  6.100 /  4.  6.100\n",
      "  libpostproc    56.  5.100 / 56.  5.100\n",
      "[rawvideo @ 0x558a581a74c0] Estimating duration from bitrate, this may be inaccurate\n",
      "Input #0, rawvideo, from 'test_vids/tempRAW_refs/scene0000001.yuv':\n",
      "  Duration: 00:00:02.00, start: 0.000000, bitrate: 745749 kb/s\n",
      "  Stream #0:0: Video: rawvideo (I420 / 0x30323449), yuv420p, 1920x1080, 745749 kb/s, 29.97 tbr, 29.97 tbn\n",
      "Stream mapping:\n",
      "  Stream #0:0 -> #0:0 (rawvideo (native) -> h264 (libx264))\n",
      "Press [q] to stop, [?] for help\n",
      "[libx264 @ 0x558a581b4180] using cpu capabilities: MMX2 SSE2Fast SSSE3 SSE4.2 AVX FMA3 BMI2 AVX2\n",
      "[libx264 @ 0x558a581b4180] profile High, level 4.0\n",
      "[libx264 @ 0x558a581b4180] 264 - core 155 r2917 0a84d98 - H.264/MPEG-4 AVC codec - Copyleft 2003-2018 - http://www.videolan.org/x264.html - options: cabac=1 ref=3 deblock=1:0:0 analyse=0x3:0x113 me=hex subme=7 psy=1 psy_rd=1.00:0.00 mixed_ref=1 me_range=16 chroma_me=1 trellis=1 8x8dct=1 cqm=0 deadzone=21,11 fast_pskip=1 chroma_qp_offset=-2 threads=12 lookahead_threads=2 sliced_threads=0 nr=0 decimate=1 interlaced=0 bluray_compat=0 constrained_intra=0 bframes=3 b_pyramid=2 b_adapt=1 b_bias=0 direct=1 weightb=1 open_gop=0 weightp=2 keyint=250 keyint_min=25 scenecut=40 intra_refresh=0 rc_lookahead=40 rc=crf mbtree=1 crf=19.0 qcomp=0.60 qpmin=0 qpmax=69 qpstep=4 ip_ratio=1.40 aq=1:1.00\n",
      "Output #0, mp4, to 'test_vids/temp_encoded/0/19_AVC.mp4':\n",
      "  Metadata:\n",
      "    encoder         : Lavf59.22.100\n",
      "  Stream #0:0: Video: h264 (avc1 / 0x31637661), yuv420p(progressive), 1920x1080, q=2-31, 29.97 fps, 11988 tbn\n",
      "    Metadata:\n",
      "      encoder         : Lavc59.26.100 libx264\n",
      "    Side data:\n",
      "      cpb: bitrate max/min/avg: 0/0/0 buffer size: 0 vbv_delay: N/A\n",
      "frame=    1 fps=0.0 q=0.0 size=       0kB time=00:00:00.00 bitrate=N/A speed=N/A    \r"
     ]
    },
    {
     "name": "stdout",
     "output_type": "stream",
     "text": [
      "values for -shot0 -crf17 saved\n",
      "-rate38270314 -vmaf98.361118\n",
      "new -crf19\n"
     ]
    },
    {
     "name": "stderr",
     "output_type": "stream",
     "text": [
      "frame=   60 fps= 25 q=-1.0 Lsize=    6530kB time=00:00:01.90 bitrate=28127.1kbits/s speed=0.802x    x    \n",
      "video:6529kB audio:0kB subtitle:0kB other streams:0kB global headers:0kB muxing overhead: 0.024830%\n",
      "[libx264 @ 0x558a581b4180] frame I:1     Avg QP:22.03  size:309449\n",
      "[libx264 @ 0x558a581b4180] frame P:15    Avg QP:22.59  size:220934\n",
      "[libx264 @ 0x558a581b4180] frame B:44    Avg QP:25.25  size: 69576\n",
      "[libx264 @ 0x558a581b4180] consecutive B-frames:  1.7%  0.0%  5.0% 93.3%\n",
      "[libx264 @ 0x558a581b4180] mb I  I16..4:  0.1% 99.1%  0.8%\n",
      "[libx264 @ 0x558a581b4180] mb P  I16..4:  0.0% 35.8%  0.8%  P16..4: 18.3% 23.2% 21.5%  0.0%  0.0%    skip: 0.4%\n",
      "[libx264 @ 0x558a581b4180] mb B  I16..4:  0.0%  6.2%  0.2%  B16..8: 27.5% 15.2%  5.9%  direct:14.9%  skip:30.2%  L0:30.7% L1:26.8% BI:42.5%\n",
      "[libx264 @ 0x558a581b4180] 8x8 transform intra:97.8% inter:71.8%\n",
      "[libx264 @ 0x558a581b4180] coded y,uvDC,uvAC intra: 97.6% 93.1% 58.0% inter: 49.3% 42.6% 6.3%\n",
      "[libx264 @ 0x558a581b4180] i16 v,h,dc,p: 10% 26% 10% 54%\n",
      "[libx264 @ 0x558a581b4180] i8 v,h,dc,ddl,ddr,vr,hd,vl,hu: 16% 18% 19%  5%  8%  8%  9%  7% 10%\n",
      "[libx264 @ 0x558a581b4180] i4 v,h,dc,ddl,ddr,vr,hd,vl,hu: 16% 16% 12%  7% 11% 10% 10%  9% 11%\n",
      "[libx264 @ 0x558a581b4180] i8c dc,h,v,p: 53% 18% 22%  6%\n",
      "[libx264 @ 0x558a581b4180] Weighted P-Frames: Y:0.0% UV:0.0%\n",
      "[libx264 @ 0x558a581b4180] ref P L0: 41.1% 17.1% 32.1%  9.7%\n",
      "[libx264 @ 0x558a581b4180] ref B L0: 84.6% 12.4%  3.0%\n",
      "[libx264 @ 0x558a581b4180] ref B L1: 96.6%  3.4%\n",
      "[libx264 @ 0x558a581b4180] kb/s:26712.49\n",
      "ffmpeg version N-106635-g83e1a1de88 Copyright (c) 2000-2022 the FFmpeg developers\n",
      "  built with gcc 9 (Ubuntu 9.4.0-1ubuntu1~20.04.1)\n",
      "  configuration: --prefix=/home/ubuntu/ffmpeg_build --pkg-config-flags=--static --extra-cflags=-I/home/ubuntu/ffmpeg_build/include --extra-ldflags=-L/home/ubuntu/ffmpeg_build/lib --extra-libs='-lpthread -lm' --ld=g++ --bindir=/home/ubuntu/bin --enable-gpl --enable-gnutls --enable-libaom --enable-libass --enable-libfdk-aac --enable-libfreetype --enable-libmp3lame --enable-libopus --enable-libsvtav1 --enable-libdav1d --enable-libvorbis --enable-libvpx --enable-libx264 --enable-libx265 --enable-libvmaf --enable-version3 --enable-nonfree\n",
      "  libavutil      57. 24.101 / 57. 24.101\n",
      "  libavcodec     59. 26.100 / 59. 26.100\n",
      "  libavformat    59. 22.100 / 59. 22.100\n",
      "  libavdevice    59.  6.100 / 59.  6.100\n",
      "  libavfilter     8. 33.100 /  8. 33.100\n",
      "  libswscale      6.  6.100 /  6.  6.100\n",
      "  libswresample   4.  6.100 /  4.  6.100\n",
      "  libpostproc    56.  5.100 / 56.  5.100\n",
      "[rawvideo @ 0x55859583b5c0] Estimating duration from bitrate, this may be inaccurate\n",
      "Input #0, rawvideo, from 'test_vids/tempRAW_refs/scene0000001.yuv':\n",
      "  Duration: 00:00:02.00, start: 0.000000, bitrate: 745749 kb/s\n",
      "  Stream #0:0: Video: rawvideo (I420 / 0x30323449), yuv420p, 1920x1080, 745749 kb/s, 29.97 tbr, 29.97 tbn\n",
      "Input #1, mov,mp4,m4a,3gp,3g2,mj2, from 'test_vids/temp_encoded/0/19_AVC.mp4':\n",
      "  Metadata:\n",
      "    major_brand     : isom\n",
      "    minor_version   : 512\n",
      "    compatible_brands: isomiso2avc1mp41\n",
      "    encoder         : Lavf59.22.100\n",
      "  Duration: 00:00:02.00, start: 0.000000, bitrate: 26708 kb/s\n",
      "  Stream #1:0[0x1](und): Video: h264 (High) (avc1 / 0x31637661), yuv420p(progressive), 1920x1080, 26715 kb/s, 29.97 fps, 29.97 tbr, 11988 tbn (default)\n",
      "    Metadata:\n",
      "      handler_name    : VideoHandler\n",
      "      vendor_id       : [0][0][0][0]\n",
      "Stream mapping:\n",
      "  Stream #0:0 (rawvideo) -> setpts:default\n",
      "  Stream #1:0 (h264) -> scale:default\n",
      "  libvmaf:default -> Stream #0:0 (wrapped_avframe)\n",
      "Press [q] to stop, [?] for help\n",
      "Output #0, null, to 'pipe:':\n",
      "  Metadata:\n",
      "    encoder         : Lavf59.22.100\n",
      "  Stream #0:0: Video: wrapped_avframe, yuv420p(progressive), 1920x1080, q=2-31, 200 kb/s, 29.97 fps, 29.97 tbn\n",
      "    Metadata:\n",
      "      encoder         : Lavc59.26.100 wrapped_avframe\n",
      "frame=   60 fps=9.5 q=-0.0 Lsize=N/A time=00:00:02.00 bitrate=N/A speed=0.318x    \n",
      "video:28kB audio:0kB subtitle:0kB other streams:0kB global headers:0kB muxing overhead: unknown\n",
      "[Parsed_libvmaf_3 @ 0x558596708c80] VMAF score: 96.779559\n",
      "ffmpeg version N-106635-g83e1a1de88 Copyright (c) 2000-2022 the FFmpeg developers\n",
      "  built with gcc 9 (Ubuntu 9.4.0-1ubuntu1~20.04.1)\n",
      "  configuration: --prefix=/home/ubuntu/ffmpeg_build --pkg-config-flags=--static --extra-cflags=-I/home/ubuntu/ffmpeg_build/include --extra-ldflags=-L/home/ubuntu/ffmpeg_build/lib --extra-libs='-lpthread -lm' --ld=g++ --bindir=/home/ubuntu/bin --enable-gpl --enable-gnutls --enable-libaom --enable-libass --enable-libfdk-aac --enable-libfreetype --enable-libmp3lame --enable-libopus --enable-libsvtav1 --enable-libdav1d --enable-libvorbis --enable-libvpx --enable-libx264 --enable-libx265 --enable-libvmaf --enable-version3 --enable-nonfree\n",
      "  libavutil      57. 24.101 / 57. 24.101\n",
      "  libavcodec     59. 26.100 / 59. 26.100\n",
      "  libavformat    59. 22.100 / 59. 22.100\n",
      "  libavdevice    59.  6.100 / 59.  6.100\n",
      "  libavfilter     8. 33.100 /  8. 33.100\n",
      "  libswscale      6.  6.100 /  6.  6.100\n",
      "  libswresample   4.  6.100 /  4.  6.100\n",
      "  libpostproc    56.  5.100 / 56.  5.100\n",
      "[rawvideo @ 0x55865f1214c0] Estimating duration from bitrate, this may be inaccurate\n",
      "Input #0, rawvideo, from 'test_vids/tempRAW_refs/scene0000001.yuv':\n",
      "  Duration: 00:00:02.00, start: 0.000000, bitrate: 745749 kb/s\n",
      "  Stream #0:0: Video: rawvideo (I420 / 0x30323449), yuv420p, 1920x1080, 745749 kb/s, 29.97 tbr, 29.97 tbn\n",
      "Stream mapping:\n",
      "  Stream #0:0 -> #0:0 (rawvideo (native) -> h264 (libx264))\n",
      "Press [q] to stop, [?] for help\n",
      "[libx264 @ 0x55865f12e180] using cpu capabilities: MMX2 SSE2Fast SSSE3 SSE4.2 AVX FMA3 BMI2 AVX2\n",
      "[libx264 @ 0x55865f12e180] profile High, level 4.0\n",
      "[libx264 @ 0x55865f12e180] 264 - core 155 r2917 0a84d98 - H.264/MPEG-4 AVC codec - Copyleft 2003-2018 - http://www.videolan.org/x264.html - options: cabac=1 ref=3 deblock=1:0:0 analyse=0x3:0x113 me=hex subme=7 psy=1 psy_rd=1.00:0.00 mixed_ref=1 me_range=16 chroma_me=1 trellis=1 8x8dct=1 cqm=0 deadzone=21,11 fast_pskip=1 chroma_qp_offset=-2 threads=12 lookahead_threads=2 sliced_threads=0 nr=0 decimate=1 interlaced=0 bluray_compat=0 constrained_intra=0 bframes=3 b_pyramid=2 b_adapt=1 b_bias=0 direct=1 weightb=1 open_gop=0 weightp=2 keyint=250 keyint_min=25 scenecut=40 intra_refresh=0 rc_lookahead=40 rc=crf mbtree=1 crf=20.0 qcomp=0.60 qpmin=0 qpmax=69 qpstep=4 ip_ratio=1.40 aq=1:1.00\n",
      "Output #0, mp4, to 'test_vids/temp_encoded/0/20_AVC.mp4':\n",
      "  Metadata:\n",
      "    encoder         : Lavf59.22.100\n",
      "  Stream #0:0: Video: h264 (avc1 / 0x31637661), yuv420p(progressive), 1920x1080, q=2-31, 29.97 fps, 11988 tbn\n",
      "    Metadata:\n",
      "      encoder         : Lavc59.26.100 libx264\n",
      "    Side data:\n",
      "      cpb: bitrate max/min/avg: 0/0/0 buffer size: 0 vbv_delay: N/A\n",
      "frame=    1 fps=0.0 q=0.0 size=       0kB time=00:00:00.00 bitrate=N/A speed=N/A    \r"
     ]
    },
    {
     "name": "stdout",
     "output_type": "stream",
     "text": [
      "values for -shot0 -crf19 saved\n",
      "-rate26708569 -vmaf96.779559\n",
      "uff.. out of range\n",
      "new -crf20\n"
     ]
    },
    {
     "name": "stderr",
     "output_type": "stream",
     "text": [
      "frame=   60 fps= 27 q=-1.0 Lsize=    5419kB time=00:00:01.90 bitrate=23338.1kbits/s speed=0.858x    x    \n",
      "video:5417kB audio:0kB subtitle:0kB other streams:0kB global headers:0kB muxing overhead: 0.029349%\n",
      "[libx264 @ 0x55865f12e180] frame I:1     Avg QP:23.03  size:292668\n",
      "[libx264 @ 0x55865f12e180] frame P:15    Avg QP:23.58  size:195280\n",
      "[libx264 @ 0x55865f12e180] frame B:44    Avg QP:26.27  size: 52828\n",
      "[libx264 @ 0x55865f12e180] consecutive B-frames:  1.7%  0.0%  5.0% 93.3%\n",
      "[libx264 @ 0x55865f12e180] mb I  I16..4:  0.2% 98.7%  1.1%\n",
      "[libx264 @ 0x55865f12e180] mb P  I16..4:  0.0% 34.0%  0.7%  P16..4: 20.7% 22.7% 20.8%  0.0%  0.0%    skip: 1.1%\n",
      "[libx264 @ 0x55865f12e180] mb B  I16..4:  0.0%  5.3%  0.1%  B16..8: 29.2% 13.7%  5.0%  direct:10.8%  skip:35.8%  L0:32.1% L1:29.4% BI:38.5%\n",
      "[libx264 @ 0x55865f12e180] 8x8 transform intra:97.9% inter:69.6%\n",
      "[libx264 @ 0x55865f12e180] coded y,uvDC,uvAC intra: 96.8% 91.2% 54.9% inter: 40.5% 34.6% 4.4%\n",
      "[libx264 @ 0x55865f12e180] i16 v,h,dc,p: 13% 26%  7% 54%\n",
      "[libx264 @ 0x55865f12e180] i8 v,h,dc,ddl,ddr,vr,hd,vl,hu: 16% 17% 19%  5%  8%  8%  9%  7% 11%\n",
      "[libx264 @ 0x55865f12e180] i4 v,h,dc,ddl,ddr,vr,hd,vl,hu: 17% 16% 11%  7% 11% 10%  9%  8%  9%\n",
      "[libx264 @ 0x55865f12e180] i8c dc,h,v,p: 54% 18% 22%  6%\n",
      "[libx264 @ 0x55865f12e180] Weighted P-Frames: Y:0.0% UV:0.0%\n",
      "[libx264 @ 0x55865f12e180] ref P L0: 40.9% 17.2% 33.1%  8.8%\n",
      "[libx264 @ 0x55865f12e180] ref B L0: 85.5% 11.8%  2.7%\n",
      "[libx264 @ 0x55865f12e180] ref B L1: 97.0%  3.0%\n",
      "[libx264 @ 0x55865f12e180] kb/s:22162.91\n",
      "ffmpeg version N-106635-g83e1a1de88 Copyright (c) 2000-2022 the FFmpeg developers\n",
      "  built with gcc 9 (Ubuntu 9.4.0-1ubuntu1~20.04.1)\n",
      "  configuration: --prefix=/home/ubuntu/ffmpeg_build --pkg-config-flags=--static --extra-cflags=-I/home/ubuntu/ffmpeg_build/include --extra-ldflags=-L/home/ubuntu/ffmpeg_build/lib --extra-libs='-lpthread -lm' --ld=g++ --bindir=/home/ubuntu/bin --enable-gpl --enable-gnutls --enable-libaom --enable-libass --enable-libfdk-aac --enable-libfreetype --enable-libmp3lame --enable-libopus --enable-libsvtav1 --enable-libdav1d --enable-libvorbis --enable-libvpx --enable-libx264 --enable-libx265 --enable-libvmaf --enable-version3 --enable-nonfree\n",
      "  libavutil      57. 24.101 / 57. 24.101\n",
      "  libavcodec     59. 26.100 / 59. 26.100\n",
      "  libavformat    59. 22.100 / 59. 22.100\n",
      "  libavdevice    59.  6.100 / 59.  6.100\n",
      "  libavfilter     8. 33.100 /  8. 33.100\n",
      "  libswscale      6.  6.100 /  6.  6.100\n",
      "  libswresample   4.  6.100 /  4.  6.100\n",
      "  libpostproc    56.  5.100 / 56.  5.100\n",
      "[rawvideo @ 0x55a54a9b45c0] Estimating duration from bitrate, this may be inaccurate\n",
      "Input #0, rawvideo, from 'test_vids/tempRAW_refs/scene0000001.yuv':\n",
      "  Duration: 00:00:02.00, start: 0.000000, bitrate: 745749 kb/s\n",
      "  Stream #0:0: Video: rawvideo (I420 / 0x30323449), yuv420p, 1920x1080, 745749 kb/s, 29.97 tbr, 29.97 tbn\n",
      "Input #1, mov,mp4,m4a,3gp,3g2,mj2, from 'test_vids/temp_encoded/0/20_AVC.mp4':\n",
      "  Metadata:\n",
      "    major_brand     : isom\n",
      "    minor_version   : 512\n",
      "    compatible_brands: isomiso2avc1mp41\n",
      "    encoder         : Lavf59.22.100\n",
      "  Duration: 00:00:02.00, start: 0.000000, bitrate: 22161 kb/s\n",
      "  Stream #1:0[0x1](und): Video: h264 (High) (avc1 / 0x31637661), yuv420p(progressive), 1920x1080, 22165 kb/s, 29.97 fps, 29.97 tbr, 11988 tbn (default)\n",
      "    Metadata:\n",
      "      handler_name    : VideoHandler\n",
      "      vendor_id       : [0][0][0][0]\n",
      "Stream mapping:\n",
      "  Stream #0:0 (rawvideo) -> setpts:default\n",
      "  Stream #1:0 (h264) -> scale:default\n",
      "  libvmaf:default -> Stream #0:0 (wrapped_avframe)\n",
      "Press [q] to stop, [?] for help\n",
      "Output #0, null, to 'pipe:':\n",
      "  Metadata:\n",
      "    encoder         : Lavf59.22.100\n",
      "  Stream #0:0: Video: wrapped_avframe, yuv420p(progressive), 1920x1080, q=2-31, 200 kb/s, 29.97 fps, 29.97 tbn\n",
      "    Metadata:\n",
      "      encoder         : Lavc59.26.100 wrapped_avframe\n",
      "frame=   60 fps=9.3 q=-0.0 Lsize=N/A time=00:00:02.00 bitrate=N/A speed=0.311x    \n",
      "video:28kB audio:0kB subtitle:0kB other streams:0kB global headers:0kB muxing overhead: unknown\n",
      "[Parsed_libvmaf_3 @ 0x55a54b881d80] VMAF score: 95.859116\n",
      "ffmpeg version N-106635-g83e1a1de88 Copyright (c) 2000-2022 the FFmpeg developers\n",
      "  built with gcc 9 (Ubuntu 9.4.0-1ubuntu1~20.04.1)\n",
      "  configuration: --prefix=/home/ubuntu/ffmpeg_build --pkg-config-flags=--static --extra-cflags=-I/home/ubuntu/ffmpeg_build/include --extra-ldflags=-L/home/ubuntu/ffmpeg_build/lib --extra-libs='-lpthread -lm' --ld=g++ --bindir=/home/ubuntu/bin --enable-gpl --enable-gnutls --enable-libaom --enable-libass --enable-libfdk-aac --enable-libfreetype --enable-libmp3lame --enable-libopus --enable-libsvtav1 --enable-libdav1d --enable-libvorbis --enable-libvpx --enable-libx264 --enable-libx265 --enable-libvmaf --enable-version3 --enable-nonfree\n",
      "  libavutil      57. 24.101 / 57. 24.101\n",
      "  libavcodec     59. 26.100 / 59. 26.100\n",
      "  libavformat    59. 22.100 / 59. 22.100\n",
      "  libavdevice    59.  6.100 / 59.  6.100\n",
      "  libavfilter     8. 33.100 /  8. 33.100\n",
      "  libswscale      6.  6.100 /  6.  6.100\n",
      "  libswresample   4.  6.100 /  4.  6.100\n",
      "  libpostproc    56.  5.100 / 56.  5.100\n",
      "[rawvideo @ 0x562d876b04c0] Estimating duration from bitrate, this may be inaccurate\n",
      "Input #0, rawvideo, from 'test_vids/tempRAW_refs/scene0000002.yuv':\n",
      "  Duration: 00:00:02.00, start: 0.000000, bitrate: 745749 kb/s\n",
      "  Stream #0:0: Video: rawvideo (I420 / 0x30323449), yuv420p, 1920x1080, 745749 kb/s, 29.97 tbr, 29.97 tbn\n",
      "Stream mapping:\n",
      "  Stream #0:0 -> #0:0 (rawvideo (native) -> h264 (libx264))\n",
      "Press [q] to stop, [?] for help\n",
      "[libx264 @ 0x562d876bd180] using cpu capabilities: MMX2 SSE2Fast SSSE3 SSE4.2 AVX FMA3 BMI2 AVX2\n",
      "[libx264 @ 0x562d876bd180] profile High, level 4.0\n",
      "[libx264 @ 0x562d876bd180] 264 - core 155 r2917 0a84d98 - H.264/MPEG-4 AVC codec - Copyleft 2003-2018 - http://www.videolan.org/x264.html - options: cabac=1 ref=3 deblock=1:0:0 analyse=0x3:0x113 me=hex subme=7 psy=1 psy_rd=1.00:0.00 mixed_ref=1 me_range=16 chroma_me=1 trellis=1 8x8dct=1 cqm=0 deadzone=21,11 fast_pskip=1 chroma_qp_offset=-2 threads=12 lookahead_threads=2 sliced_threads=0 nr=0 decimate=1 interlaced=0 bluray_compat=0 constrained_intra=0 bframes=3 b_pyramid=2 b_adapt=1 b_bias=0 direct=1 weightb=1 open_gop=0 weightp=2 keyint=250 keyint_min=25 scenecut=40 intra_refresh=0 rc_lookahead=40 rc=crf mbtree=1 crf=28.0 qcomp=0.60 qpmin=0 qpmax=69 qpstep=4 ip_ratio=1.40 aq=1:1.00\n",
      "Output #0, mp4, to 'test_vids/temp_encoded/1/28_AVC.mp4':\n",
      "  Metadata:\n",
      "    encoder         : Lavf59.22.100\n",
      "  Stream #0:0: Video: h264 (avc1 / 0x31637661), yuv420p(progressive), 1920x1080, q=2-31, 29.97 fps, 11988 tbn\n",
      "    Metadata:\n",
      "      encoder         : Lavc59.26.100 libx264\n",
      "    Side data:\n",
      "      cpb: bitrate max/min/avg: 0/0/0 buffer size: 0 vbv_delay: N/A\n",
      "frame=    1 fps=0.0 q=0.0 size=       0kB time=00:00:00.00 bitrate=N/A speed=N/A    \r"
     ]
    },
    {
     "name": "stdout",
     "output_type": "stream",
     "text": [
      "values for -shot0 -crf20 saved\n",
      "-rate22161126 -vmaf95.859116\n",
      "new -crf20\n",
      "Opt point: 20\n",
      "init computing -scene1\n"
     ]
    },
    {
     "name": "stderr",
     "output_type": "stream",
     "text": [
      "frame=   60 fps= 45 q=-1.0 Lsize=     360kB time=00:00:01.90 bitrate=1551.2kbits/s speed=1.42x    \n",
      "video:359kB audio:0kB subtitle:0kB other streams:0kB global headers:0kB muxing overhead: 0.428079%\n",
      "[libx264 @ 0x562d876bd180] frame I:1     Avg QP:29.28  size: 27006\n",
      "[libx264 @ 0x562d876bd180] frame P:15    Avg QP:29.40  size: 11260\n",
      "[libx264 @ 0x562d876bd180] frame B:44    Avg QP:30.43  size:  3878\n",
      "[libx264 @ 0x562d876bd180] consecutive B-frames:  1.7%  0.0%  5.0% 93.3%\n",
      "[libx264 @ 0x562d876bd180] mb I  I16..4: 57.0% 39.8%  3.2%\n",
      "[libx264 @ 0x562d876bd180] mb P  I16..4: 26.1% 13.3%  0.2%  P16..4: 19.4%  1.8%  1.1%  0.0%  0.0%    skip:38.0%\n",
      "[libx264 @ 0x562d876bd180] mb B  I16..4:  2.1%  1.2%  0.0%  B16..8: 23.1%  0.5%  0.1%  direct: 0.3%  skip:72.6%  L0:38.4% L1:60.8% BI: 0.8%\n",
      "[libx264 @ 0x562d876bd180] 8x8 transform intra:34.9% inter:93.6%\n",
      "[libx264 @ 0x562d876bd180] coded y,uvDC,uvAC intra: 9.4% 22.2% 1.1% inter: 3.1% 4.0% 0.0%\n",
      "[libx264 @ 0x562d876bd180] i16 v,h,dc,p: 44% 23%  8% 25%\n",
      "[libx264 @ 0x562d876bd180] i8 v,h,dc,ddl,ddr,vr,hd,vl,hu: 22% 13% 41%  4%  4%  4%  5%  4%  3%\n",
      "[libx264 @ 0x562d876bd180] i4 v,h,dc,ddl,ddr,vr,hd,vl,hu: 26% 13% 26%  4%  8%  9%  6%  6%  2%\n",
      "[libx264 @ 0x562d876bd180] i8c dc,h,v,p: 74% 10% 14%  1%\n",
      "[libx264 @ 0x562d876bd180] Weighted P-Frames: Y:33.3% UV:6.7%\n",
      "[libx264 @ 0x562d876bd180] ref P L0: 53.8% 16.1% 23.2%  5.0%  2.0%\n",
      "[libx264 @ 0x562d876bd180] ref B L0: 92.8%  5.8%  1.4%\n",
      "[libx264 @ 0x562d876bd180] ref B L1: 98.3%  1.7%\n",
      "[libx264 @ 0x562d876bd180] kb/s:1464.66\n",
      "ffmpeg version N-106635-g83e1a1de88 Copyright (c) 2000-2022 the FFmpeg developers\n",
      "  built with gcc 9 (Ubuntu 9.4.0-1ubuntu1~20.04.1)\n",
      "  configuration: --prefix=/home/ubuntu/ffmpeg_build --pkg-config-flags=--static --extra-cflags=-I/home/ubuntu/ffmpeg_build/include --extra-ldflags=-L/home/ubuntu/ffmpeg_build/lib --extra-libs='-lpthread -lm' --ld=g++ --bindir=/home/ubuntu/bin --enable-gpl --enable-gnutls --enable-libaom --enable-libass --enable-libfdk-aac --enable-libfreetype --enable-libmp3lame --enable-libopus --enable-libsvtav1 --enable-libdav1d --enable-libvorbis --enable-libvpx --enable-libx264 --enable-libx265 --enable-libvmaf --enable-version3 --enable-nonfree\n",
      "  libavutil      57. 24.101 / 57. 24.101\n",
      "  libavcodec     59. 26.100 / 59. 26.100\n",
      "  libavformat    59. 22.100 / 59. 22.100\n",
      "  libavdevice    59.  6.100 / 59.  6.100\n",
      "  libavfilter     8. 33.100 /  8. 33.100\n",
      "  libswscale      6.  6.100 /  6.  6.100\n",
      "  libswresample   4.  6.100 /  4.  6.100\n",
      "  libpostproc    56.  5.100 / 56.  5.100\n",
      "[rawvideo @ 0x55a482e785c0] Estimating duration from bitrate, this may be inaccurate\n",
      "Input #0, rawvideo, from 'test_vids/tempRAW_refs/scene0000002.yuv':\n",
      "  Duration: 00:00:02.00, start: 0.000000, bitrate: 745749 kb/s\n",
      "  Stream #0:0: Video: rawvideo (I420 / 0x30323449), yuv420p, 1920x1080, 745749 kb/s, 29.97 tbr, 29.97 tbn\n",
      "Input #1, mov,mp4,m4a,3gp,3g2,mj2, from 'test_vids/temp_encoded/1/28_AVC.mp4':\n",
      "  Metadata:\n",
      "    major_brand     : isom\n",
      "    minor_version   : 512\n",
      "    compatible_brands: isomiso2avc1mp41\n",
      "    encoder         : Lavf59.22.100\n",
      "  Duration: 00:00:02.00, start: 0.000000, bitrate: 1472 kb/s\n",
      "  Stream #1:0[0x1](und): Video: h264 (High) (avc1 / 0x31637661), yuv420p(progressive), 1920x1080, 1467 kb/s, 29.97 fps, 29.97 tbr, 11988 tbn (default)\n",
      "    Metadata:\n",
      "      handler_name    : VideoHandler\n",
      "      vendor_id       : [0][0][0][0]\n",
      "Stream mapping:\n",
      "  Stream #0:0 (rawvideo) -> setpts:default\n",
      "  Stream #1:0 (h264) -> scale:default\n",
      "  libvmaf:default -> Stream #0:0 (wrapped_avframe)\n",
      "Press [q] to stop, [?] for help\n",
      "Output #0, null, to 'pipe:':\n",
      "  Metadata:\n",
      "    encoder         : Lavf59.22.100\n",
      "  Stream #0:0: Video: wrapped_avframe, yuv420p(progressive), 1920x1080, q=2-31, 200 kb/s, 29.97 fps, 29.97 tbn\n",
      "    Metadata:\n",
      "      encoder         : Lavc59.26.100 wrapped_avframe\n",
      "frame=   60 fps= 10 q=-0.0 Lsize=N/A time=00:00:02.00 bitrate=N/A speed=0.334x    \n",
      "video:28kB audio:0kB subtitle:0kB other streams:0kB global headers:0kB muxing overhead: unknown\n",
      "[Parsed_libvmaf_3 @ 0x55a482eaec80] VMAF score: 90.236085\n",
      "ffmpeg version N-106635-g83e1a1de88 Copyright (c) 2000-2022 the FFmpeg developers\n",
      "  built with gcc 9 (Ubuntu 9.4.0-1ubuntu1~20.04.1)\n",
      "  configuration: --prefix=/home/ubuntu/ffmpeg_build --pkg-config-flags=--static --extra-cflags=-I/home/ubuntu/ffmpeg_build/include --extra-ldflags=-L/home/ubuntu/ffmpeg_build/lib --extra-libs='-lpthread -lm' --ld=g++ --bindir=/home/ubuntu/bin --enable-gpl --enable-gnutls --enable-libaom --enable-libass --enable-libfdk-aac --enable-libfreetype --enable-libmp3lame --enable-libopus --enable-libsvtav1 --enable-libdav1d --enable-libvorbis --enable-libvpx --enable-libx264 --enable-libx265 --enable-libvmaf --enable-version3 --enable-nonfree\n",
      "  libavutil      57. 24.101 / 57. 24.101\n",
      "  libavcodec     59. 26.100 / 59. 26.100\n",
      "  libavformat    59. 22.100 / 59. 22.100\n",
      "  libavdevice    59.  6.100 / 59.  6.100\n",
      "  libavfilter     8. 33.100 /  8. 33.100\n",
      "  libswscale      6.  6.100 /  6.  6.100\n",
      "  libswresample   4.  6.100 /  4.  6.100\n",
      "  libpostproc    56.  5.100 / 56.  5.100\n",
      "[rawvideo @ 0x55f951dcc4c0] Estimating duration from bitrate, this may be inaccurate\n",
      "Input #0, rawvideo, from 'test_vids/tempRAW_refs/scene0000002.yuv':\n",
      "  Duration: 00:00:02.00, start: 0.000000, bitrate: 745749 kb/s\n",
      "  Stream #0:0: Video: rawvideo (I420 / 0x30323449), yuv420p, 1920x1080, 745749 kb/s, 29.97 tbr, 29.97 tbn\n",
      "Stream mapping:\n",
      "  Stream #0:0 -> #0:0 (rawvideo (native) -> h264 (libx264))\n",
      "Press [q] to stop, [?] for help\n",
      "[libx264 @ 0x55f951dd9180] using cpu capabilities: MMX2 SSE2Fast SSSE3 SSE4.2 AVX FMA3 BMI2 AVX2\n",
      "[libx264 @ 0x55f951dd9180] profile High, level 4.0\n",
      "[libx264 @ 0x55f951dd9180] 264 - core 155 r2917 0a84d98 - H.264/MPEG-4 AVC codec - Copyleft 2003-2018 - http://www.videolan.org/x264.html - options: cabac=1 ref=3 deblock=1:0:0 analyse=0x3:0x113 me=hex subme=7 psy=1 psy_rd=1.00:0.00 mixed_ref=1 me_range=16 chroma_me=1 trellis=1 8x8dct=1 cqm=0 deadzone=21,11 fast_pskip=1 chroma_qp_offset=-2 threads=12 lookahead_threads=2 sliced_threads=0 nr=0 decimate=1 interlaced=0 bluray_compat=0 constrained_intra=0 bframes=3 b_pyramid=2 b_adapt=1 b_bias=0 direct=1 weightb=1 open_gop=0 weightp=2 keyint=250 keyint_min=25 scenecut=40 intra_refresh=0 rc_lookahead=40 rc=crf mbtree=1 crf=17.0 qcomp=0.60 qpmin=0 qpmax=69 qpstep=4 ip_ratio=1.40 aq=1:1.00\n",
      "Output #0, mp4, to 'test_vids/temp_encoded/1/17_AVC.mp4':\n",
      "  Metadata:\n",
      "    encoder         : Lavf59.22.100\n",
      "  Stream #0:0: Video: h264 (avc1 / 0x31637661), yuv420p(progressive), 1920x1080, q=2-31, 29.97 fps, 11988 tbn\n",
      "    Metadata:\n",
      "      encoder         : Lavc59.26.100 libx264\n",
      "    Side data:\n",
      "      cpb: bitrate max/min/avg: 0/0/0 buffer size: 0 vbv_delay: N/A\n",
      "frame=    1 fps=0.0 q=0.0 size=       0kB time=00:00:00.00 bitrate=N/A speed=N/A    \r"
     ]
    },
    {
     "name": "stdout",
     "output_type": "stream",
     "text": [
      "values for -shot1 -crf28 saved\n",
      "-rate1472966 -vmaf90.236085\n"
     ]
    },
    {
     "name": "stderr",
     "output_type": "stream",
     "text": [
      "frame=   60 fps= 21 q=-1.0 Lsize=    5355kB time=00:00:01.90 bitrate=23063.2kbits/s speed=0.681x    \n",
      "video:5353kB audio:0kB subtitle:0kB other streams:0kB global headers:0kB muxing overhead: 0.029699%\n",
      "[libx264 @ 0x55f951dd9180] frame I:1     Avg QP:18.35  size:161447\n",
      "[libx264 @ 0x55f951dd9180] frame P:15    Avg QP:18.50  size:132994\n",
      "[libx264 @ 0x55f951dd9180] frame B:44    Avg QP:18.89  size: 75558\n",
      "[libx264 @ 0x55f951dd9180] consecutive B-frames:  1.7%  0.0%  5.0% 93.3%\n",
      "[libx264 @ 0x55f951dd9180] mb I  I16..4:  7.6% 89.8%  2.6%\n",
      "[libx264 @ 0x55f951dd9180] mb P  I16..4:  2.8% 56.3%  0.7%  P16..4: 23.6%  9.6%  4.8%  0.0%  0.0%    skip: 2.1%\n",
      "[libx264 @ 0x55f951dd9180] mb B  I16..4:  0.5% 20.7%  0.1%  B16..8: 29.5%  6.7%  1.6%  direct:14.1%  skip:26.9%  L0:38.6% L1:45.2% BI:16.3%\n",
      "[libx264 @ 0x55f951dd9180] 8x8 transform intra:95.4% inter:79.0%\n",
      "[libx264 @ 0x55f951dd9180] coded y,uvDC,uvAC intra: 86.9% 73.6% 37.8% inter: 39.8% 41.0% 2.1%\n",
      "[libx264 @ 0x55f951dd9180] i16 v,h,dc,p: 24%  5%  0% 70%\n",
      "[libx264 @ 0x55f951dd9180] i8 v,h,dc,ddl,ddr,vr,hd,vl,hu: 14% 12% 50%  4%  4%  4%  4%  4%  5%\n",
      "[libx264 @ 0x55f951dd9180] i4 v,h,dc,ddl,ddr,vr,hd,vl,hu: 30% 16% 10%  5% 11%  8%  8%  8%  4%\n",
      "[libx264 @ 0x55f951dd9180] i8c dc,h,v,p: 55% 19% 22%  4%\n",
      "[libx264 @ 0x55f951dd9180] Weighted P-Frames: Y:33.3% UV:6.7%\n",
      "[libx264 @ 0x55f951dd9180] ref P L0: 51.6% 12.5% 24.0%  9.8%  2.1%\n",
      "[libx264 @ 0x55f951dd9180] ref B L0: 81.4% 15.8%  2.8%\n",
      "[libx264 @ 0x55f951dd9180] ref B L1: 94.2%  5.8%\n",
      "[libx264 @ 0x55f951dd9180] kb/s:21901.77\n",
      "ffmpeg version N-106635-g83e1a1de88 Copyright (c) 2000-2022 the FFmpeg developers\n",
      "  built with gcc 9 (Ubuntu 9.4.0-1ubuntu1~20.04.1)\n",
      "  configuration: --prefix=/home/ubuntu/ffmpeg_build --pkg-config-flags=--static --extra-cflags=-I/home/ubuntu/ffmpeg_build/include --extra-ldflags=-L/home/ubuntu/ffmpeg_build/lib --extra-libs='-lpthread -lm' --ld=g++ --bindir=/home/ubuntu/bin --enable-gpl --enable-gnutls --enable-libaom --enable-libass --enable-libfdk-aac --enable-libfreetype --enable-libmp3lame --enable-libopus --enable-libsvtav1 --enable-libdav1d --enable-libvorbis --enable-libvpx --enable-libx264 --enable-libx265 --enable-libvmaf --enable-version3 --enable-nonfree\n",
      "  libavutil      57. 24.101 / 57. 24.101\n",
      "  libavcodec     59. 26.100 / 59. 26.100\n",
      "  libavformat    59. 22.100 / 59. 22.100\n",
      "  libavdevice    59.  6.100 / 59.  6.100\n",
      "  libavfilter     8. 33.100 /  8. 33.100\n",
      "  libswscale      6.  6.100 /  6.  6.100\n",
      "  libswresample   4.  6.100 /  4.  6.100\n",
      "  libpostproc    56.  5.100 / 56.  5.100\n",
      "[rawvideo @ 0x560f2968d5c0] Estimating duration from bitrate, this may be inaccurate\n",
      "Input #0, rawvideo, from 'test_vids/tempRAW_refs/scene0000002.yuv':\n",
      "  Duration: 00:00:02.00, start: 0.000000, bitrate: 745749 kb/s\n",
      "  Stream #0:0: Video: rawvideo (I420 / 0x30323449), yuv420p, 1920x1080, 745749 kb/s, 29.97 tbr, 29.97 tbn\n",
      "Input #1, mov,mp4,m4a,3gp,3g2,mj2, from 'test_vids/temp_encoded/1/17_AVC.mp4':\n",
      "  Metadata:\n",
      "    major_brand     : isom\n",
      "    minor_version   : 512\n",
      "    compatible_brands: isomiso2avc1mp41\n",
      "    encoder         : Lavf59.22.100\n",
      "  Duration: 00:00:02.00, start: 0.000000, bitrate: 21900 kb/s\n",
      "  Stream #1:0[0x1](und): Video: h264 (High) (avc1 / 0x31637661), yuv420p(progressive), 1920x1080, 21904 kb/s, 29.97 fps, 29.97 tbr, 11988 tbn (default)\n",
      "    Metadata:\n",
      "      handler_name    : VideoHandler\n",
      "      vendor_id       : [0][0][0][0]\n",
      "Stream mapping:\n",
      "  Stream #0:0 (rawvideo) -> setpts:default\n",
      "  Stream #1:0 (h264) -> scale:default\n",
      "  libvmaf:default -> Stream #0:0 (wrapped_avframe)\n",
      "Press [q] to stop, [?] for help\n",
      "Output #0, null, to 'pipe:':\n",
      "  Metadata:\n",
      "    encoder         : Lavf59.22.100\n",
      "  Stream #0:0: Video: wrapped_avframe, yuv420p(progressive), 1920x1080, q=2-31, 200 kb/s, 29.97 fps, 29.97 tbn\n",
      "    Metadata:\n",
      "      encoder         : Lavc59.26.100 wrapped_avframe\n",
      "frame=   60 fps= 10 q=-0.0 Lsize=N/A time=00:00:02.00 bitrate=N/A speed=0.332x    \n",
      "video:28kB audio:0kB subtitle:0kB other streams:0kB global headers:0kB muxing overhead: unknown\n",
      "[Parsed_libvmaf_3 @ 0x560f2a55bb80] VMAF score: 97.416974\n",
      "ffmpeg version N-106635-g83e1a1de88 Copyright (c) 2000-2022 the FFmpeg developers\n",
      "  built with gcc 9 (Ubuntu 9.4.0-1ubuntu1~20.04.1)\n",
      "  configuration: --prefix=/home/ubuntu/ffmpeg_build --pkg-config-flags=--static --extra-cflags=-I/home/ubuntu/ffmpeg_build/include --extra-ldflags=-L/home/ubuntu/ffmpeg_build/lib --extra-libs='-lpthread -lm' --ld=g++ --bindir=/home/ubuntu/bin --enable-gpl --enable-gnutls --enable-libaom --enable-libass --enable-libfdk-aac --enable-libfreetype --enable-libmp3lame --enable-libopus --enable-libsvtav1 --enable-libdav1d --enable-libvorbis --enable-libvpx --enable-libx264 --enable-libx265 --enable-libvmaf --enable-version3 --enable-nonfree\n",
      "  libavutil      57. 24.101 / 57. 24.101\n",
      "  libavcodec     59. 26.100 / 59. 26.100\n",
      "  libavformat    59. 22.100 / 59. 22.100\n",
      "  libavdevice    59.  6.100 / 59.  6.100\n",
      "  libavfilter     8. 33.100 /  8. 33.100\n",
      "  libswscale      6.  6.100 /  6.  6.100\n",
      "  libswresample   4.  6.100 /  4.  6.100\n",
      "  libpostproc    56.  5.100 / 56.  5.100\n",
      "[rawvideo @ 0x555882e814c0] Estimating duration from bitrate, this may be inaccurate\n",
      "Input #0, rawvideo, from 'test_vids/tempRAW_refs/scene0000002.yuv':\n",
      "  Duration: 00:00:02.00, start: 0.000000, bitrate: 745749 kb/s\n",
      "  Stream #0:0: Video: rawvideo (I420 / 0x30323449), yuv420p, 1920x1080, 745749 kb/s, 29.97 tbr, 29.97 tbn\n",
      "Stream mapping:\n",
      "  Stream #0:0 -> #0:0 (rawvideo (native) -> h264 (libx264))\n",
      "Press [q] to stop, [?] for help\n",
      "[libx264 @ 0x555882e8e180] using cpu capabilities: MMX2 SSE2Fast SSSE3 SSE4.2 AVX FMA3 BMI2 AVX2\n",
      "[libx264 @ 0x555882e8e180] profile High, level 4.0\n",
      "[libx264 @ 0x555882e8e180] 264 - core 155 r2917 0a84d98 - H.264/MPEG-4 AVC codec - Copyleft 2003-2018 - http://www.videolan.org/x264.html - options: cabac=1 ref=3 deblock=1:0:0 analyse=0x3:0x113 me=hex subme=7 psy=1 psy_rd=1.00:0.00 mixed_ref=1 me_range=16 chroma_me=1 trellis=1 8x8dct=1 cqm=0 deadzone=21,11 fast_pskip=1 chroma_qp_offset=-2 threads=12 lookahead_threads=2 sliced_threads=0 nr=0 decimate=1 interlaced=0 bluray_compat=0 constrained_intra=0 bframes=3 b_pyramid=2 b_adapt=1 b_bias=0 direct=1 weightb=1 open_gop=0 weightp=2 keyint=250 keyint_min=25 scenecut=40 intra_refresh=0 rc_lookahead=40 rc=crf mbtree=1 crf=19.0 qcomp=0.60 qpmin=0 qpmax=69 qpstep=4 ip_ratio=1.40 aq=1:1.00\n",
      "Output #0, mp4, to 'test_vids/temp_encoded/1/19_AVC.mp4':\n",
      "  Metadata:\n",
      "    encoder         : Lavf59.22.100\n",
      "  Stream #0:0: Video: h264 (avc1 / 0x31637661), yuv420p(progressive), 1920x1080, q=2-31, 29.97 fps, 11988 tbn\n",
      "    Metadata:\n",
      "      encoder         : Lavc59.26.100 libx264\n",
      "    Side data:\n",
      "      cpb: bitrate max/min/avg: 0/0/0 buffer size: 0 vbv_delay: N/A\n",
      "frame=    1 fps=0.0 q=0.0 size=       0kB time=00:00:00.00 bitrate=N/A speed=N/A    \r"
     ]
    },
    {
     "name": "stdout",
     "output_type": "stream",
     "text": [
      "values for -shot1 -crf17 saved\n",
      "-rate21900113 -vmaf97.416974\n",
      "new -crf19\n"
     ]
    },
    {
     "name": "stderr",
     "output_type": "stream",
     "text": [
      "frame=   60 fps= 29 q=-1.0 Lsize=    2292kB time=00:00:01.90 bitrate=9871.6kbits/s speed=0.933x    \n",
      "video:2290kB audio:0kB subtitle:0kB other streams:0kB global headers:0kB muxing overhead: 0.068391%\n",
      "[libx264 @ 0x555882e8e180] frame I:1     Avg QP:20.35  size:101425\n",
      "[libx264 @ 0x555882e8e180] frame P:15    Avg QP:20.46  size: 68627\n",
      "[libx264 @ 0x555882e8e180] frame B:44    Avg QP:20.90  size: 27587\n",
      "[libx264 @ 0x555882e8e180] consecutive B-frames:  1.7%  0.0%  5.0% 93.3%\n",
      "[libx264 @ 0x555882e8e180] mb I  I16..4: 24.4% 71.1%  4.5%\n",
      "[libx264 @ 0x555882e8e180] mb P  I16..4:  6.8% 36.0%  1.2%  P16..4: 33.4%  9.8%  5.9%  0.0%  0.0%    skip: 6.9%\n",
      "[libx264 @ 0x555882e8e180] mb B  I16..4:  1.0%  8.0%  0.1%  B16..8: 33.5%  3.3%  0.7%  direct:10.6%  skip:42.8%  L0:41.0% L1:52.5% BI: 6.5%\n",
      "[libx264 @ 0x555882e8e180] 8x8 transform intra:83.0% inter:78.3%\n",
      "[libx264 @ 0x555882e8e180] coded y,uvDC,uvAC intra: 60.2% 71.0% 16.9% inter: 25.5% 36.7% 0.6%\n",
      "[libx264 @ 0x555882e8e180] i16 v,h,dc,p: 19% 11%  4% 66%\n",
      "[libx264 @ 0x555882e8e180] i8 v,h,dc,ddl,ddr,vr,hd,vl,hu: 20% 16% 37%  4%  5%  5%  5%  5%  5%\n",
      "[libx264 @ 0x555882e8e180] i4 v,h,dc,ddl,ddr,vr,hd,vl,hu: 31% 19% 15%  5%  8%  7%  7%  6%  3%\n",
      "[libx264 @ 0x555882e8e180] i8c dc,h,v,p: 54% 19% 22%  4%\n",
      "[libx264 @ 0x555882e8e180] Weighted P-Frames: Y:33.3% UV:6.7%\n",
      "[libx264 @ 0x555882e8e180] ref P L0: 55.3% 12.7% 22.1%  8.0%  1.9%\n",
      "[libx264 @ 0x555882e8e180] ref B L0: 85.0% 12.7%  2.4%\n",
      "[libx264 @ 0x555882e8e180] ref B L1: 95.1%  4.9%\n",
      "[libx264 @ 0x555882e8e180] kb/s:9369.26\n",
      "ffmpeg version N-106635-g83e1a1de88 Copyright (c) 2000-2022 the FFmpeg developers\n",
      "  built with gcc 9 (Ubuntu 9.4.0-1ubuntu1~20.04.1)\n",
      "  configuration: --prefix=/home/ubuntu/ffmpeg_build --pkg-config-flags=--static --extra-cflags=-I/home/ubuntu/ffmpeg_build/include --extra-ldflags=-L/home/ubuntu/ffmpeg_build/lib --extra-libs='-lpthread -lm' --ld=g++ --bindir=/home/ubuntu/bin --enable-gpl --enable-gnutls --enable-libaom --enable-libass --enable-libfdk-aac --enable-libfreetype --enable-libmp3lame --enable-libopus --enable-libsvtav1 --enable-libdav1d --enable-libvorbis --enable-libvpx --enable-libx264 --enable-libx265 --enable-libvmaf --enable-version3 --enable-nonfree\n",
      "  libavutil      57. 24.101 / 57. 24.101\n",
      "  libavcodec     59. 26.100 / 59. 26.100\n",
      "  libavformat    59. 22.100 / 59. 22.100\n",
      "  libavdevice    59.  6.100 / 59.  6.100\n",
      "  libavfilter     8. 33.100 /  8. 33.100\n",
      "  libswscale      6.  6.100 /  6.  6.100\n",
      "  libswresample   4.  6.100 /  4.  6.100\n",
      "  libpostproc    56.  5.100 / 56.  5.100\n",
      "[rawvideo @ 0x5604e26515c0] Estimating duration from bitrate, this may be inaccurate\n",
      "Input #0, rawvideo, from 'test_vids/tempRAW_refs/scene0000002.yuv':\n",
      "  Duration: 00:00:02.00, start: 0.000000, bitrate: 745749 kb/s\n",
      "  Stream #0:0: Video: rawvideo (I420 / 0x30323449), yuv420p, 1920x1080, 745749 kb/s, 29.97 tbr, 29.97 tbn\n",
      "Input #1, mov,mp4,m4a,3gp,3g2,mj2, from 'test_vids/temp_encoded/1/19_AVC.mp4':\n",
      "  Metadata:\n",
      "    major_brand     : isom\n",
      "    minor_version   : 512\n",
      "    compatible_brands: isomiso2avc1mp41\n",
      "    encoder         : Lavf59.22.100\n",
      "  Duration: 00:00:02.00, start: 0.000000, bitrate: 9373 kb/s\n",
      "  Stream #1:0[0x1](und): Video: h264 (High) (avc1 / 0x31637661), yuv420p(progressive), 1920x1080, 9372 kb/s, 29.97 fps, 29.97 tbr, 11988 tbn (default)\n",
      "    Metadata:\n",
      "      handler_name    : VideoHandler\n",
      "      vendor_id       : [0][0][0][0]\n",
      "Stream mapping:\n",
      "  Stream #0:0 (rawvideo) -> setpts:default\n",
      "  Stream #1:0 (h264) -> scale:default\n",
      "  libvmaf:default -> Stream #0:0 (wrapped_avframe)\n",
      "Press [q] to stop, [?] for help\n",
      "Output #0, null, to 'pipe:':\n",
      "  Metadata:\n",
      "    encoder         : Lavf59.22.100\n",
      "  Stream #0:0: Video: wrapped_avframe, yuv420p(progressive), 1920x1080, q=2-31, 200 kb/s, 29.97 fps, 29.97 tbn\n",
      "    Metadata:\n",
      "      encoder         : Lavc59.26.100 wrapped_avframe\n",
      "frame=   60 fps= 10 q=-0.0 Lsize=N/A time=00:00:02.00 bitrate=N/A speed=0.334x    \n",
      "video:28kB audio:0kB subtitle:0kB other streams:0kB global headers:0kB muxing overhead: unknown\n",
      "[Parsed_libvmaf_3 @ 0x5604e2687040] VMAF score: 96.735419\n"
     ]
    },
    {
     "name": "stdout",
     "output_type": "stream",
     "text": [
      "values for -shot1 -crf19 saved\n",
      "-rate9373751 -vmaf96.735419\n",
      "uff.. out of range\n",
      "new -crf20\n"
     ]
    },
    {
     "name": "stderr",
     "output_type": "stream",
     "text": [
      "ffmpeg version N-106635-g83e1a1de88 Copyright (c) 2000-2022 the FFmpeg developers\n",
      "  built with gcc 9 (Ubuntu 9.4.0-1ubuntu1~20.04.1)\n",
      "  configuration: --prefix=/home/ubuntu/ffmpeg_build --pkg-config-flags=--static --extra-cflags=-I/home/ubuntu/ffmpeg_build/include --extra-ldflags=-L/home/ubuntu/ffmpeg_build/lib --extra-libs='-lpthread -lm' --ld=g++ --bindir=/home/ubuntu/bin --enable-gpl --enable-gnutls --enable-libaom --enable-libass --enable-libfdk-aac --enable-libfreetype --enable-libmp3lame --enable-libopus --enable-libsvtav1 --enable-libdav1d --enable-libvorbis --enable-libvpx --enable-libx264 --enable-libx265 --enable-libvmaf --enable-version3 --enable-nonfree\n",
      "  libavutil      57. 24.101 / 57. 24.101\n",
      "  libavcodec     59. 26.100 / 59. 26.100\n",
      "  libavformat    59. 22.100 / 59. 22.100\n",
      "  libavdevice    59.  6.100 / 59.  6.100\n",
      "  libavfilter     8. 33.100 /  8. 33.100\n",
      "  libswscale      6.  6.100 /  6.  6.100\n",
      "  libswresample   4.  6.100 /  4.  6.100\n",
      "  libpostproc    56.  5.100 / 56.  5.100\n",
      "[rawvideo @ 0x556ca8d654c0] Estimating duration from bitrate, this may be inaccurate\n",
      "Input #0, rawvideo, from 'test_vids/tempRAW_refs/scene0000002.yuv':\n",
      "  Duration: 00:00:02.00, start: 0.000000, bitrate: 745749 kb/s\n",
      "  Stream #0:0: Video: rawvideo (I420 / 0x30323449), yuv420p, 1920x1080, 745749 kb/s, 29.97 tbr, 29.97 tbn\n",
      "Stream mapping:\n",
      "  Stream #0:0 -> #0:0 (rawvideo (native) -> h264 (libx264))\n",
      "Press [q] to stop, [?] for help\n",
      "[libx264 @ 0x556ca8d72180] using cpu capabilities: MMX2 SSE2Fast SSSE3 SSE4.2 AVX FMA3 BMI2 AVX2\n",
      "[libx264 @ 0x556ca8d72180] profile High, level 4.0\n",
      "[libx264 @ 0x556ca8d72180] 264 - core 155 r2917 0a84d98 - H.264/MPEG-4 AVC codec - Copyleft 2003-2018 - http://www.videolan.org/x264.html - options: cabac=1 ref=3 deblock=1:0:0 analyse=0x3:0x113 me=hex subme=7 psy=1 psy_rd=1.00:0.00 mixed_ref=1 me_range=16 chroma_me=1 trellis=1 8x8dct=1 cqm=0 deadzone=21,11 fast_pskip=1 chroma_qp_offset=-2 threads=12 lookahead_threads=2 sliced_threads=0 nr=0 decimate=1 interlaced=0 bluray_compat=0 constrained_intra=0 bframes=3 b_pyramid=2 b_adapt=1 b_bias=0 direct=1 weightb=1 open_gop=0 weightp=2 keyint=250 keyint_min=25 scenecut=40 intra_refresh=0 rc_lookahead=40 rc=crf mbtree=1 crf=20.0 qcomp=0.60 qpmin=0 qpmax=69 qpstep=4 ip_ratio=1.40 aq=1:1.00\n",
      "Output #0, mp4, to 'test_vids/temp_encoded/1/20_AVC.mp4':\n",
      "  Metadata:\n",
      "    encoder         : Lavf59.22.100\n",
      "  Stream #0:0: Video: h264 (avc1 / 0x31637661), yuv420p(progressive), 1920x1080, q=2-31, 29.97 fps, 11988 tbn\n",
      "    Metadata:\n",
      "      encoder         : Lavc59.26.100 libx264\n",
      "    Side data:\n",
      "      cpb: bitrate max/min/avg: 0/0/0 buffer size: 0 vbv_delay: N/A\n",
      "frame=   60 fps= 34 q=-1.0 Lsize=    1576kB time=00:00:01.90 bitrate=6787.2kbits/s speed=1.07x       \n",
      "video:1574kB audio:0kB subtitle:0kB other streams:0kB global headers:0kB muxing overhead: 0.098508%\n",
      "[libx264 @ 0x556ca8d72180] frame I:1     Avg QP:21.34  size: 83521\n",
      "[libx264 @ 0x556ca8d72180] frame P:15    Avg QP:21.43  size: 50347\n",
      "[libx264 @ 0x556ca8d72180] frame B:44    Avg QP:21.92  size: 17560\n",
      "[libx264 @ 0x556ca8d72180] consecutive B-frames:  1.7%  0.0%  5.0% 93.3%\n",
      "[libx264 @ 0x556ca8d72180] mb I  I16..4: 33.4% 61.4%  5.2%\n",
      "[libx264 @ 0x556ca8d72180] mb P  I16..4: 10.0% 28.3%  1.3%  P16..4: 35.1%  8.3%  5.8%  0.0%  0.0%    skip:11.2%\n",
      "[libx264 @ 0x556ca8d72180] mb B  I16..4:  1.4%  4.7%  0.1%  B16..8: 34.2%  2.6%  0.5%  direct: 7.4%  skip:49.2%  L0:41.3% L1:53.9% BI: 4.8%\n",
      "[libx264 @ 0x556ca8d72180] 8x8 transform intra:71.5% inter:79.7%\n",
      "[libx264 @ 0x556ca8d72180] coded y,uvDC,uvAC intra: 47.2% 65.1% 12.2% inter: 19.9% 30.8% 0.3%\n",
      "[libx264 @ 0x556ca8d72180] i16 v,h,dc,p: 23% 15%  5% 57%\n",
      "[libx264 @ 0x556ca8d72180] i8 v,h,dc,ddl,ddr,vr,hd,vl,hu: 22% 17% 31%  5%  5%  5%  6%  5%  5%\n",
      "[libx264 @ 0x556ca8d72180] i4 v,h,dc,ddl,ddr,vr,hd,vl,hu: 30% 18% 19%  6%  7%  6%  6%  5%  2%\n",
      "[libx264 @ 0x556ca8d72180] i8c dc,h,v,p: 56% 18% 22%  4%\n",
      "[libx264 @ 0x556ca8d72180] Weighted P-Frames: Y:33.3% UV:6.7%\n",
      "[libx264 @ 0x556ca8d72180] ref P L0: 56.8% 13.0% 21.2%  7.2%  1.9%\n",
      "[libx264 @ 0x556ca8d72180] ref B L0: 86.4% 11.3%  2.3%\n",
      "[libx264 @ 0x556ca8d72180] ref B L1: 95.6%  4.4%\n",
      "[libx264 @ 0x556ca8d72180] kb/s:6438.98\n",
      "ffmpeg version N-106635-g83e1a1de88 Copyright (c) 2000-2022 the FFmpeg developers\n",
      "  built with gcc 9 (Ubuntu 9.4.0-1ubuntu1~20.04.1)\n",
      "  configuration: --prefix=/home/ubuntu/ffmpeg_build --pkg-config-flags=--static --extra-cflags=-I/home/ubuntu/ffmpeg_build/include --extra-ldflags=-L/home/ubuntu/ffmpeg_build/lib --extra-libs='-lpthread -lm' --ld=g++ --bindir=/home/ubuntu/bin --enable-gpl --enable-gnutls --enable-libaom --enable-libass --enable-libfdk-aac --enable-libfreetype --enable-libmp3lame --enable-libopus --enable-libsvtav1 --enable-libdav1d --enable-libvorbis --enable-libvpx --enable-libx264 --enable-libx265 --enable-libvmaf --enable-version3 --enable-nonfree\n",
      "  libavutil      57. 24.101 / 57. 24.101\n",
      "  libavcodec     59. 26.100 / 59. 26.100\n",
      "  libavformat    59. 22.100 / 59. 22.100\n",
      "  libavdevice    59.  6.100 / 59.  6.100\n",
      "  libavfilter     8. 33.100 /  8. 33.100\n",
      "  libswscale      6.  6.100 /  6.  6.100\n",
      "  libswresample   4.  6.100 /  4.  6.100\n",
      "  libpostproc    56.  5.100 / 56.  5.100\n",
      "[rawvideo @ 0x5577392c25c0] Estimating duration from bitrate, this may be inaccurate\n",
      "Input #0, rawvideo, from 'test_vids/tempRAW_refs/scene0000002.yuv':\n",
      "  Duration: 00:00:02.00, start: 0.000000, bitrate: 745749 kb/s\n",
      "  Stream #0:0: Video: rawvideo (I420 / 0x30323449), yuv420p, 1920x1080, 745749 kb/s, 29.97 tbr, 29.97 tbn\n",
      "Input #1, mov,mp4,m4a,3gp,3g2,mj2, from 'test_vids/temp_encoded/1/20_AVC.mp4':\n",
      "  Metadata:\n",
      "    major_brand     : isom\n",
      "    minor_version   : 512\n",
      "    compatible_brands: isomiso2avc1mp41\n",
      "    encoder         : Lavf59.22.100\n",
      "  Duration: 00:00:02.00, start: 0.000000, bitrate: 6444 kb/s\n",
      "  Stream #1:0[0x1](und): Video: h264 (High) (avc1 / 0x31637661), yuv420p(progressive), 1920x1080, 6441 kb/s, 29.97 fps, 29.97 tbr, 11988 tbn (default)\n",
      "    Metadata:\n",
      "      handler_name    : VideoHandler\n",
      "      vendor_id       : [0][0][0][0]\n",
      "Stream mapping:\n",
      "  Stream #0:0 (rawvideo) -> setpts:default\n",
      "  Stream #1:0 (h264) -> scale:default\n",
      "  libvmaf:default -> Stream #0:0 (wrapped_avframe)\n",
      "Press [q] to stop, [?] for help\n",
      "Output #0, null, to 'pipe:':\n",
      "  Metadata:\n",
      "    encoder         : Lavf59.22.100\n",
      "  Stream #0:0: Video: wrapped_avframe, yuv420p(progressive), 1920x1080, q=2-31, 200 kb/s, 29.97 fps, 29.97 tbn\n",
      "    Metadata:\n",
      "      encoder         : Lavc59.26.100 wrapped_avframe\n",
      "frame=   60 fps=9.9 q=-0.0 Lsize=N/A time=00:00:02.00 bitrate=N/A speed=0.332x    \n",
      "video:28kB audio:0kB subtitle:0kB other streams:0kB global headers:0kB muxing overhead: unknown\n",
      "[Parsed_libvmaf_3 @ 0x5577392f7680] VMAF score: 96.369658\n",
      "ffmpeg version N-106635-g83e1a1de88 Copyright (c) 2000-2022 the FFmpeg developers\n",
      "  built with gcc 9 (Ubuntu 9.4.0-1ubuntu1~20.04.1)\n",
      "  configuration: --prefix=/home/ubuntu/ffmpeg_build --pkg-config-flags=--static --extra-cflags=-I/home/ubuntu/ffmpeg_build/include --extra-ldflags=-L/home/ubuntu/ffmpeg_build/lib --extra-libs='-lpthread -lm' --ld=g++ --bindir=/home/ubuntu/bin --enable-gpl --enable-gnutls --enable-libaom --enable-libass --enable-libfdk-aac --enable-libfreetype --enable-libmp3lame --enable-libopus --enable-libsvtav1 --enable-libdav1d --enable-libvorbis --enable-libvpx --enable-libx264 --enable-libx265 --enable-libvmaf --enable-version3 --enable-nonfree\n",
      "  libavutil      57. 24.101 / 57. 24.101\n",
      "  libavcodec     59. 26.100 / 59. 26.100\n",
      "  libavformat    59. 22.100 / 59. 22.100\n",
      "  libavdevice    59.  6.100 / 59.  6.100\n",
      "  libavfilter     8. 33.100 /  8. 33.100\n",
      "  libswscale      6.  6.100 /  6.  6.100\n",
      "  libswresample   4.  6.100 /  4.  6.100\n",
      "  libpostproc    56.  5.100 / 56.  5.100\n",
      "[rawvideo @ 0x55a6ae6404c0] Estimating duration from bitrate, this may be inaccurate\n",
      "Input #0, rawvideo, from 'test_vids/tempRAW_refs/scene0000003.yuv':\n",
      "  Duration: 00:00:02.00, start: 0.000000, bitrate: 745749 kb/s\n",
      "  Stream #0:0: Video: rawvideo (I420 / 0x30323449), yuv420p, 1920x1080, 745749 kb/s, 29.97 tbr, 29.97 tbn\n",
      "Stream mapping:\n",
      "  Stream #0:0 -> #0:0 (rawvideo (native) -> h264 (libx264))\n",
      "Press [q] to stop, [?] for help\n",
      "[libx264 @ 0x55a6ae64d180] using cpu capabilities: MMX2 SSE2Fast SSSE3 SSE4.2 AVX FMA3 BMI2 AVX2\n",
      "[libx264 @ 0x55a6ae64d180] profile High, level 4.0\n",
      "[libx264 @ 0x55a6ae64d180] 264 - core 155 r2917 0a84d98 - H.264/MPEG-4 AVC codec - Copyleft 2003-2018 - http://www.videolan.org/x264.html - options: cabac=1 ref=3 deblock=1:0:0 analyse=0x3:0x113 me=hex subme=7 psy=1 psy_rd=1.00:0.00 mixed_ref=1 me_range=16 chroma_me=1 trellis=1 8x8dct=1 cqm=0 deadzone=21,11 fast_pskip=1 chroma_qp_offset=-2 threads=12 lookahead_threads=2 sliced_threads=0 nr=0 decimate=1 interlaced=0 bluray_compat=0 constrained_intra=0 bframes=3 b_pyramid=2 b_adapt=1 b_bias=0 direct=1 weightb=1 open_gop=0 weightp=2 keyint=250 keyint_min=25 scenecut=40 intra_refresh=0 rc_lookahead=40 rc=crf mbtree=1 crf=28.0 qcomp=0.60 qpmin=0 qpmax=69 qpstep=4 ip_ratio=1.40 aq=1:1.00\n",
      "Output #0, mp4, to 'test_vids/temp_encoded/2/28_AVC.mp4':\n",
      "  Metadata:\n",
      "    encoder         : Lavf59.22.100\n",
      "  Stream #0:0: Video: h264 (avc1 / 0x31637661), yuv420p(progressive), 1920x1080, q=2-31, 29.97 fps, 11988 tbn\n",
      "    Metadata:\n",
      "      encoder         : Lavc59.26.100 libx264\n",
      "    Side data:\n",
      "      cpb: bitrate max/min/avg: 0/0/0 buffer size: 0 vbv_delay: N/A\n",
      "frame=    1 fps=0.0 q=0.0 size=       0kB time=00:00:00.00 bitrate=N/A speed=   0x    \r"
     ]
    },
    {
     "name": "stdout",
     "output_type": "stream",
     "text": [
      "values for -shot1 -crf20 saved\n",
      "-rate6444872 -vmaf96.369658\n",
      "uff.. out of range\n",
      "new -crf20\n",
      "Opt point: 20\n",
      "init computing -scene2\n"
     ]
    },
    {
     "name": "stderr",
     "output_type": "stream",
     "text": [
      "frame=   60 fps= 50 q=-1.0 Lsize=     600kB time=00:00:01.90 bitrate=2585.6kbits/s speed=1.59x     \n",
      "video:599kB audio:0kB subtitle:0kB other streams:0kB global headers:0kB muxing overhead: 0.256382%\n",
      "[libx264 @ 0x55a6ae64d180] frame I:1     Avg QP:29.47  size:120810\n",
      "[libx264 @ 0x55a6ae64d180] frame P:15    Avg QP:30.17  size: 17764\n",
      "[libx264 @ 0x55a6ae64d180] frame B:44    Avg QP:33.63  size:  5118\n",
      "[libx264 @ 0x55a6ae64d180] consecutive B-frames:  1.7%  0.0%  5.0% 93.3%\n",
      "[libx264 @ 0x55a6ae64d180] mb I  I16..4:  1.3% 86.1% 12.5%\n",
      "[libx264 @ 0x55a6ae64d180] mb P  I16..4:  0.0%  1.1%  0.3%  P16..4: 29.4%  6.8%  4.4%  0.0%  0.0%    skip:57.8%\n",
      "[libx264 @ 0x55a6ae64d180] mb B  I16..4:  0.0%  0.0%  0.0%  B16..8: 42.0%  1.5%  0.2%  direct: 0.3%  skip:55.9%  L0:46.8% L1:50.8% BI: 2.3%\n",
      "[libx264 @ 0x55a6ae64d180] 8x8 transform intra:84.2% inter:82.9%\n",
      "[libx264 @ 0x55a6ae64d180] coded y,uvDC,uvAC intra: 89.4% 42.3% 13.0% inter: 5.3% 2.4% 0.1%\n",
      "[libx264 @ 0x55a6ae64d180] i16 v,h,dc,p: 40% 12%  5% 43%\n",
      "[libx264 @ 0x55a6ae64d180] i8 v,h,dc,ddl,ddr,vr,hd,vl,hu:  9% 18% 22%  7%  8%  6% 11%  6% 13%\n",
      "[libx264 @ 0x55a6ae64d180] i4 v,h,dc,ddl,ddr,vr,hd,vl,hu: 15% 19% 17%  8% 10%  6% 11%  5%  8%\n",
      "[libx264 @ 0x55a6ae64d180] i8c dc,h,v,p: 72% 12% 14%  2%\n",
      "[libx264 @ 0x55a6ae64d180] Weighted P-Frames: Y:46.7% UV:13.3%\n",
      "[libx264 @ 0x55a6ae64d180] ref P L0: 55.0% 29.6% 10.6%  3.4%  1.5%\n",
      "[libx264 @ 0x55a6ae64d180] ref B L0: 94.6%  3.4%  2.1%\n",
      "[libx264 @ 0x55a6ae64d180] ref B L1: 97.0%  3.0%\n",
      "[libx264 @ 0x55a6ae64d180] kb/s:2447.38\n",
      "ffmpeg version N-106635-g83e1a1de88 Copyright (c) 2000-2022 the FFmpeg developers\n",
      "  built with gcc 9 (Ubuntu 9.4.0-1ubuntu1~20.04.1)\n",
      "  configuration: --prefix=/home/ubuntu/ffmpeg_build --pkg-config-flags=--static --extra-cflags=-I/home/ubuntu/ffmpeg_build/include --extra-ldflags=-L/home/ubuntu/ffmpeg_build/lib --extra-libs='-lpthread -lm' --ld=g++ --bindir=/home/ubuntu/bin --enable-gpl --enable-gnutls --enable-libaom --enable-libass --enable-libfdk-aac --enable-libfreetype --enable-libmp3lame --enable-libopus --enable-libsvtav1 --enable-libdav1d --enable-libvorbis --enable-libvpx --enable-libx264 --enable-libx265 --enable-libvmaf --enable-version3 --enable-nonfree\n",
      "  libavutil      57. 24.101 / 57. 24.101\n",
      "  libavcodec     59. 26.100 / 59. 26.100\n",
      "  libavformat    59. 22.100 / 59. 22.100\n",
      "  libavdevice    59.  6.100 / 59.  6.100\n",
      "  libavfilter     8. 33.100 /  8. 33.100\n",
      "  libswscale      6.  6.100 /  6.  6.100\n",
      "  libswresample   4.  6.100 /  4.  6.100\n",
      "  libpostproc    56.  5.100 / 56.  5.100\n",
      "[rawvideo @ 0x5569d21535c0] Estimating duration from bitrate, this may be inaccurate\n",
      "Input #0, rawvideo, from 'test_vids/tempRAW_refs/scene0000003.yuv':\n",
      "  Duration: 00:00:02.00, start: 0.000000, bitrate: 745749 kb/s\n",
      "  Stream #0:0: Video: rawvideo (I420 / 0x30323449), yuv420p, 1920x1080, 745749 kb/s, 29.97 tbr, 29.97 tbn\n",
      "Input #1, mov,mp4,m4a,3gp,3g2,mj2, from 'test_vids/temp_encoded/2/28_AVC.mp4':\n",
      "  Metadata:\n",
      "    major_brand     : isom\n",
      "    minor_version   : 512\n",
      "    compatible_brands: isomiso2avc1mp41\n",
      "    encoder         : Lavf59.22.100\n",
      "  Duration: 00:00:02.00, start: 0.000000, bitrate: 2455 kb/s\n",
      "  Stream #1:0[0x1](und): Video: h264 (High) (avc1 / 0x31637661), yuv420p(progressive), 1920x1080, 2450 kb/s, 29.97 fps, 29.97 tbr, 11988 tbn (default)\n",
      "    Metadata:\n",
      "      handler_name    : VideoHandler\n",
      "      vendor_id       : [0][0][0][0]\n",
      "Stream mapping:\n",
      "  Stream #0:0 (rawvideo) -> setpts:default\n",
      "  Stream #1:0 (h264) -> scale:default\n",
      "  libvmaf:default -> Stream #0:0 (wrapped_avframe)\n",
      "Press [q] to stop, [?] for help\n",
      "Output #0, null, to 'pipe:':\n",
      "  Metadata:\n",
      "    encoder         : Lavf59.22.100\n",
      "  Stream #0:0: Video: wrapped_avframe, yuv420p(progressive), 1920x1080, q=2-31, 200 kb/s, 29.97 fps, 29.97 tbn\n",
      "    Metadata:\n",
      "      encoder         : Lavc59.26.100 wrapped_avframe\n",
      "frame=   60 fps=9.4 q=-0.0 Lsize=N/A time=00:00:02.00 bitrate=N/A speed=0.315x    \n",
      "video:28kB audio:0kB subtitle:0kB other streams:0kB global headers:0kB muxing overhead: unknown\n",
      "[Parsed_libvmaf_3 @ 0x5569d2188900] VMAF score: 84.949430\n",
      "ffmpeg version N-106635-g83e1a1de88 Copyright (c) 2000-2022 the FFmpeg developers\n",
      "  built with gcc 9 (Ubuntu 9.4.0-1ubuntu1~20.04.1)\n",
      "  configuration: --prefix=/home/ubuntu/ffmpeg_build --pkg-config-flags=--static --extra-cflags=-I/home/ubuntu/ffmpeg_build/include --extra-ldflags=-L/home/ubuntu/ffmpeg_build/lib --extra-libs='-lpthread -lm' --ld=g++ --bindir=/home/ubuntu/bin --enable-gpl --enable-gnutls --enable-libaom --enable-libass --enable-libfdk-aac --enable-libfreetype --enable-libmp3lame --enable-libopus --enable-libsvtav1 --enable-libdav1d --enable-libvorbis --enable-libvpx --enable-libx264 --enable-libx265 --enable-libvmaf --enable-version3 --enable-nonfree\n",
      "  libavutil      57. 24.101 / 57. 24.101\n",
      "  libavcodec     59. 26.100 / 59. 26.100\n",
      "  libavformat    59. 22.100 / 59. 22.100\n",
      "  libavdevice    59.  6.100 / 59.  6.100\n",
      "  libavfilter     8. 33.100 /  8. 33.100\n",
      "  libswscale      6.  6.100 /  6.  6.100\n",
      "  libswresample   4.  6.100 /  4.  6.100\n",
      "  libpostproc    56.  5.100 / 56.  5.100\n",
      "[rawvideo @ 0x56437a4034c0] Estimating duration from bitrate, this may be inaccurate\n",
      "Input #0, rawvideo, from 'test_vids/tempRAW_refs/scene0000003.yuv':\n",
      "  Duration: 00:00:02.00, start: 0.000000, bitrate: 745749 kb/s\n",
      "  Stream #0:0: Video: rawvideo (I420 / 0x30323449), yuv420p, 1920x1080, 745749 kb/s, 29.97 tbr, 29.97 tbn\n",
      "Stream mapping:\n",
      "  Stream #0:0 -> #0:0 (rawvideo (native) -> h264 (libx264))\n",
      "Press [q] to stop, [?] for help\n",
      "[libx264 @ 0x56437a410180] using cpu capabilities: MMX2 SSE2Fast SSSE3 SSE4.2 AVX FMA3 BMI2 AVX2\n",
      "[libx264 @ 0x56437a410180] profile High, level 4.0\n",
      "[libx264 @ 0x56437a410180] 264 - core 155 r2917 0a84d98 - H.264/MPEG-4 AVC codec - Copyleft 2003-2018 - http://www.videolan.org/x264.html - options: cabac=1 ref=3 deblock=1:0:0 analyse=0x3:0x113 me=hex subme=7 psy=1 psy_rd=1.00:0.00 mixed_ref=1 me_range=16 chroma_me=1 trellis=1 8x8dct=1 cqm=0 deadzone=21,11 fast_pskip=1 chroma_qp_offset=-2 threads=12 lookahead_threads=2 sliced_threads=0 nr=0 decimate=1 interlaced=0 bluray_compat=0 constrained_intra=0 bframes=3 b_pyramid=2 b_adapt=1 b_bias=0 direct=1 weightb=1 open_gop=0 weightp=2 keyint=250 keyint_min=25 scenecut=40 intra_refresh=0 rc_lookahead=40 rc=crf mbtree=1 crf=17.0 qcomp=0.60 qpmin=0 qpmax=69 qpstep=4 ip_ratio=1.40 aq=1:1.00\n",
      "Output #0, mp4, to 'test_vids/temp_encoded/2/17_AVC.mp4':\n",
      "  Metadata:\n",
      "    encoder         : Lavf59.22.100\n",
      "  Stream #0:0: Video: h264 (avc1 / 0x31637661), yuv420p(progressive), 1920x1080, q=2-31, 29.97 fps, 11988 tbn\n",
      "    Metadata:\n",
      "      encoder         : Lavc59.26.100 libx264\n",
      "    Side data:\n",
      "      cpb: bitrate max/min/avg: 0/0/0 buffer size: 0 vbv_delay: N/A\n",
      "frame=    1 fps=0.0 q=0.0 size=       0kB time=00:00:00.00 bitrate=N/A speed=N/A    \r"
     ]
    },
    {
     "name": "stdout",
     "output_type": "stream",
     "text": [
      "values for -shot2 -crf28 saved\n",
      "-rate2455197 -vmaf84.94943\n"
     ]
    },
    {
     "name": "stderr",
     "output_type": "stream",
     "text": [
      "frame=   60 fps= 20 q=-1.0 Lsize=   10653kB time=00:00:01.90 bitrate=45884.9kbits/s speed=0.627x    \n",
      "video:10652kB audio:0kB subtitle:0kB other streams:0kB global headers:0kB muxing overhead: 0.015476%\n",
      "[libx264 @ 0x56437a410180] frame I:1     Avg QP:18.47  size:409737\n",
      "[libx264 @ 0x56437a410180] frame P:15    Avg QP:18.82  size:301184\n",
      "[libx264 @ 0x56437a410180] frame B:44    Avg QP:22.05  size:135890\n",
      "[libx264 @ 0x56437a410180] consecutive B-frames:  1.7%  0.0%  5.0% 93.3%\n",
      "[libx264 @ 0x56437a410180] mb I  I16..4:  0.0% 99.2%  0.8%\n",
      "[libx264 @ 0x56437a410180] mb P  I16..4:  0.0% 23.6%  0.7%  P16..4: 24.0% 30.8% 20.9%  0.0%  0.0%    skip: 0.0%\n",
      "[libx264 @ 0x56437a410180] mb B  I16..4:  0.0%  0.8%  0.0%  B16..8: 37.9% 14.6%  5.4%  direct:30.8%  skip:10.3%  L0:27.2% L1:23.8% BI:49.0%\n",
      "[libx264 @ 0x56437a410180] 8x8 transform intra:97.5% inter:78.0%\n",
      "[libx264 @ 0x56437a410180] coded y,uvDC,uvAC intra: 99.3% 96.8% 68.6% inter: 79.0% 58.0% 3.0%\n",
      "[libx264 @ 0x56437a410180] i16 v,h,dc,p: 18%  0%  6% 76%\n",
      "[libx264 @ 0x56437a410180] i8 v,h,dc,ddl,ddr,vr,hd,vl,hu: 10% 20% 21%  6%  8%  5% 11%  5% 14%\n",
      "[libx264 @ 0x56437a410180] i4 v,h,dc,ddl,ddr,vr,hd,vl,hu: 14% 17% 13%  7% 10%  8% 13%  7% 12%\n",
      "[libx264 @ 0x56437a410180] i8c dc,h,v,p: 60% 20% 16%  4%\n",
      "[libx264 @ 0x56437a410180] Weighted P-Frames: Y:46.7% UV:13.3%\n",
      "[libx264 @ 0x56437a410180] ref P L0: 46.1% 13.9% 21.6% 13.7%  4.7%\n",
      "[libx264 @ 0x56437a410180] ref B L0: 79.3% 16.9%  3.9%\n",
      "[libx264 @ 0x56437a410180] ref B L1: 93.0%  7.0%\n",
      "[libx264 @ 0x56437a410180] kb/s:43583.05\n",
      "ffmpeg version N-106635-g83e1a1de88 Copyright (c) 2000-2022 the FFmpeg developers\n",
      "  built with gcc 9 (Ubuntu 9.4.0-1ubuntu1~20.04.1)\n",
      "  configuration: --prefix=/home/ubuntu/ffmpeg_build --pkg-config-flags=--static --extra-cflags=-I/home/ubuntu/ffmpeg_build/include --extra-ldflags=-L/home/ubuntu/ffmpeg_build/lib --extra-libs='-lpthread -lm' --ld=g++ --bindir=/home/ubuntu/bin --enable-gpl --enable-gnutls --enable-libaom --enable-libass --enable-libfdk-aac --enable-libfreetype --enable-libmp3lame --enable-libopus --enable-libsvtav1 --enable-libdav1d --enable-libvorbis --enable-libvpx --enable-libx264 --enable-libx265 --enable-libvmaf --enable-version3 --enable-nonfree\n",
      "  libavutil      57. 24.101 / 57. 24.101\n",
      "  libavcodec     59. 26.100 / 59. 26.100\n",
      "  libavformat    59. 22.100 / 59. 22.100\n",
      "  libavdevice    59.  6.100 / 59.  6.100\n",
      "  libavfilter     8. 33.100 /  8. 33.100\n",
      "  libswscale      6.  6.100 /  6.  6.100\n",
      "  libswresample   4.  6.100 /  4.  6.100\n",
      "  libpostproc    56.  5.100 / 56.  5.100\n",
      "[rawvideo @ 0x5652a44fd5c0] Estimating duration from bitrate, this may be inaccurate\n",
      "Input #0, rawvideo, from 'test_vids/tempRAW_refs/scene0000003.yuv':\n",
      "  Duration: 00:00:02.00, start: 0.000000, bitrate: 745749 kb/s\n",
      "  Stream #0:0: Video: rawvideo (I420 / 0x30323449), yuv420p, 1920x1080, 745749 kb/s, 29.97 tbr, 29.97 tbn\n",
      "Input #1, mov,mp4,m4a,3gp,3g2,mj2, from 'test_vids/temp_encoded/2/17_AVC.mp4':\n",
      "  Metadata:\n",
      "    major_brand     : isom\n",
      "    minor_version   : 512\n",
      "    compatible_brands: isomiso2avc1mp41\n",
      "    encoder         : Lavf59.22.100\n",
      "  Duration: 00:00:02.00, start: 0.000000, bitrate: 43570 kb/s\n",
      "  Stream #1:0[0x1](und): Video: h264 (High) (avc1 / 0x31637661), yuv420p(progressive), 1920x1080, 43585 kb/s, 29.97 fps, 29.97 tbr, 11988 tbn (default)\n",
      "    Metadata:\n",
      "      handler_name    : VideoHandler\n",
      "      vendor_id       : [0][0][0][0]\n",
      "Stream mapping:\n",
      "  Stream #0:0 (rawvideo) -> setpts:default\n",
      "  Stream #1:0 (h264) -> scale:default\n",
      "  libvmaf:default -> Stream #0:0 (wrapped_avframe)\n",
      "Press [q] to stop, [?] for help\n",
      "Output #0, null, to 'pipe:':\n",
      "  Metadata:\n",
      "    encoder         : Lavf59.22.100\n",
      "  Stream #0:0: Video: wrapped_avframe, yuv420p(progressive), 1920x1080, q=2-31, 200 kb/s, 29.97 fps, 29.97 tbn\n",
      "    Metadata:\n",
      "      encoder         : Lavc59.26.100 wrapped_avframe\n",
      "frame=   55 fps=9.2 q=-0.0 size=N/A time=00:00:01.83 bitrate=N/A speed=0.306x    \r"
     ]
    },
    {
     "name": "stdout",
     "output_type": "stream",
     "text": [
      "values for -shot2 -crf17 saved\n",
      "-rate43570827 -vmaf96.458465\n",
      "new -crf17\n",
      "Opt point: 17\n"
     ]
    },
    {
     "name": "stderr",
     "output_type": "stream",
     "text": [
      "frame=   60 fps=9.2 q=-0.0 size=N/A time=00:00:02.00 bitrate=N/A speed=0.308x    \r",
      "frame=   60 fps=9.2 q=-0.0 Lsize=N/A time=00:00:02.00 bitrate=N/A speed=0.308x    \n",
      "video:28kB audio:0kB subtitle:0kB other streams:0kB global headers:0kB muxing overhead: unknown\n",
      "[Parsed_libvmaf_3 @ 0x5652a53cb100] VMAF score: 96.458465\n"
     ]
    }
   ],
   "source": [
    "shot_index = 0\n",
    "point_index = 0\n",
    "\n",
    "for shot in sorted(os.listdir(ref_path)): #for each shot\n",
    "    print(\"init computing -scene\" + str(shot_index))\n",
    "    while not current_point == new_point: #if no convergence\n",
    "        if point_index == 0: #if there are no points to compare\n",
    "            new_point = max_range_crf #encode at the upper value iof the starting range\n",
    "            \n",
    "        #encoding\n",
    "        add_info = s_cod[\"add_param\"]\n",
    "        lib = s_cod[\"lib\"]\n",
    "        out = dist_path + str(shot_index) + \"/\" + str(new_point) + \"_\" + codec.upper() + \".\" + s_cod[\"container\"]\n",
    "        enc = f\"ffmpeg -f rawvideo -video_size {raw_width}x{raw_height} \\\n",
    "            -r {raw_fps} -pixel_format yuv420p -i {ref_path+shot} -c:v {lib} \\\n",
    "            -crf {new_point} {add_info} {out}\"\n",
    "        subprocess.call(enc, shell=True)\n",
    "        \n",
    "        #quality assessment\n",
    "        c_vmaf = f\"ffmpeg -f rawvideo -r {raw_fps} -video_size {raw_width}x{raw_height} -i {ref_path+shot} \\\n",
    "            -i {out} \\\n",
    "            -lavfi \\\"[0:v]setpts=PTS-STARTPTS[ref];\\\n",
    "                     [1:v]scale={raw_width}x{raw_height}:flags=bicubic, setpts=PTS-STARTPTS[dist];\\\n",
    "                     [dist][ref]libvmaf=feature=name=psnr:log_path={vmaf_logs}:log_fmt=json\\\" \\\n",
    "            -f null -\" #|name=float_ssim|name=float_ms_ssim to compute the other metrics\n",
    "        subprocess.call(c_vmaf, shell=True)\n",
    "        \n",
    "        #extract quality and rate values\n",
    "        with open(vmaf_logs, 'r') as r:\n",
    "            i_data = json.load(r)\n",
    "        vmaf = i_data[\"pooled_metrics\"][\"vmaf\"][\"mean\"]\n",
    "        psnr = (6*i_data[\"pooled_metrics\"][\"psnr_y\"][\"mean\"] + i_data[\"pooled_metrics\"][\"psnr_cb\"][\"mean\"] + i_data[\"pooled_metrics\"][\"psnr_cr\"][\"mean\"])/8\n",
    "        info = \"ffprobe -v error -select_streams v:0 -show_entries format:stream -print_format json \" + out\n",
    "        cout = subprocess.run(info.split(), stdout=subprocess.PIPE, stderr=subprocess.STDOUT).stdout\n",
    "        dict = json.loads(cout)\n",
    "        bitrate = int(dict['format']['bit_rate'])\n",
    "    \n",
    "        #TODO: results must be weighted based on duration\n",
    "        res_matrix = save_results(shot_index, new_point, bitrate, vmaf, psnr)\n",
    "        \n",
    "        if flag_target:\n",
    "            target_name = \"vmaf\"\n",
    "            target = target_quality[0] #TODO: support more targets\n",
    "        else:\n",
    "            target_name = \"bitrate\"\n",
    "            target = target_bitrate[0]\n",
    "            \n",
    "        if point_index == 0: #if there are no points to compare (first loop)\n",
    "            current_point = max_range_crf #the current optimal point is the first one\n",
    "            new_point = min_range_crf #in the next loop encode at the second crf (the lower in the starting range)\n",
    "        else:\n",
    "            #element-wise difference between the metric and its target value\n",
    "            difference = np.asarray(abs(np.asarray(res_matrix[target_name]) - target))\n",
    "            #the minimum difference = the element with the index closer to the target\n",
    "            i_first_min = np.argmin(difference)\n",
    "            nd_diff = difference.copy()\n",
    "            nd_diff[i_first_min] = np.inf #replace the minimum with inf\n",
    "            i_second_min = np.argmin(nd_diff) #find the second minimum\n",
    "            current_point = i_first_min #the index of the point closer to the target\n",
    "            #swap the values of the two ends if the lower end is bigger than the upper end\n",
    "            if(res_matrix[target_name][i_first_min] > res_matrix[target_name][i_second_min]):\n",
    "                sx_end = res_matrix[target_name][i_first_min]\n",
    "                dx_end = res_matrix[target_name][i_second_min]\n",
    "                i_sx_end = i_first_min\n",
    "                i_dx_end = i_second_min\n",
    "            else:\n",
    "                sx_end = res_matrix[target_name][i_second_min]\n",
    "                dx_end = res_matrix[target_name][i_first_min]\n",
    "                i_sx_end = i_second_min\n",
    "                i_dx_end = i_first_min\n",
    "            \n",
    "            if target < sx_end and target > dx_end: #if the target is in the range\n",
    "                new_point = interpolate(res_matrix, i_sx_end, i_dx_end)\n",
    "            else: #if the target is out of the range\n",
    "                if target > sx_end: #if the target is out of the range in the left side\n",
    "                    new_point = 0 #if no other points in this direction had been stored encode at the min crf\n",
    "                    i = i_sx_end - 1\n",
    "                    while new_point == 0 or not i == 0:\n",
    "                        #the first point you find is the new lower end of the range\n",
    "                        if not res_matrix[target_name][i] == math.inf:\n",
    "                            new_point = interpolate(res_matrix, i, i_sx_end)\n",
    "                        i -= 1\n",
    "                else: #if the target is out of the range in the right side\n",
    "                    new_point = s_cod[\"crfs\"] #if no other points in this direction had been stored encode at the max crf\n",
    "                    i = i_dx_end + 1\n",
    "                    while new_point == 0 or not i == s_cod[\"crfs\"]:\n",
    "                        #the first point you find is the new upper end of the range\n",
    "                        if not res_matrix[target_name][i] == math.inf:\n",
    "                            new_point = interpolate(res_matrix, i_dx_end, i)\n",
    "                        i += 1\n",
    "        point_index += 1\n",
    "    \n",
    "    print(\"Opt point: \" + str(current_point))\n",
    "    current_point = None\n",
    "    new_point = 0    \n",
    "    shot_index += 1\n",
    "    point_index = 0"
   ]
  },
  {
   "cell_type": "markdown",
   "id": "c40772a7",
   "metadata": {},
   "source": [
    "## TODO: Encode opt video\n",
    "Put together all the individually encoded shots"
   ]
  },
  {
   "cell_type": "code",
   "execution_count": null,
   "id": "93fbc7ab",
   "metadata": {},
   "outputs": [],
   "source": []
  },
  {
   "cell_type": "markdown",
   "id": "9c1646fc",
   "metadata": {},
   "source": [
    "## TODO: Curve fitting\n",
    "When the upper search has tested 3 points, given these 3 RQ points, discover the polynomian or logarithmic function that describes their trend. Repeat this when a new point is computed. Measure the error between the approximation and the actual implementation (lagrangian search above) and assess whether and when it may be useful to speed up the search process, by reducing the number of test to encode before the optimum."
   ]
  },
  {
   "cell_type": "code",
   "execution_count": null,
   "id": "56764fc6",
   "metadata": {},
   "outputs": [],
   "source": []
  }
 ],
 "metadata": {
  "kernelspec": {
   "display_name": "Python 3 (ipykernel)",
   "language": "python",
   "name": "python3"
  },
  "language_info": {
   "codemirror_mode": {
    "name": "ipython",
    "version": 3
   },
   "file_extension": ".py",
   "mimetype": "text/x-python",
   "name": "python",
   "nbconvert_exporter": "python",
   "pygments_lexer": "ipython3",
   "version": "3.8.10"
  }
 },
 "nbformat": 4,
 "nbformat_minor": 5
}
